<svg width="170" height="73" viewBox="0 0 170 73" fill="none" xmlns="http://www.w3.org/2000/svg">
<g clip-path="url(#clip0_2:179)">
<path d="M32 54.2267C32.0013 53.5461 32.2693 52.8938 32.7453 52.4126C33.2213 51.9314 33.8665 51.6604 34.5396 51.6591C35.0419 51.6591 35.5329 51.8097 35.9505 52.0918C36.3681 52.3739 36.6936 52.775 36.8859 53.2441C37.0781 53.7133 37.1284 54.2296 37.0304 54.7276C36.9324 55.2257 36.6905 55.6832 36.3353 56.0423C35.9802 56.4014 35.5277 56.6459 35.035 56.745C34.5424 56.8441 34.0318 56.7932 33.5677 56.5989C33.1037 56.4045 32.7071 56.0754 32.428 55.6532C32.1489 55.231 32 54.7345 32 54.2267V54.2267ZM32.3082 58.4535H36.7422V72.6619H32.3082V58.4535Z" fill="url(#paint0_linear_2:179)"/>
<path d="M54.8763 61.0678C54.8763 65.9684 52.0297 68.1209 46.8756 68.1209H44.2849V72.6631H39.7923V54.2267H47.1003C52.1582 54.2267 54.8763 56.6127 54.8763 61.0678ZM50.2089 61.2243C50.2089 59.2055 49.2854 58.1646 46.8756 58.1646H44.2849V64.2575H46.7471C49.2343 64.2613 50.2089 63.0424 50.2089 61.2281V61.2243Z" fill="url(#paint1_linear_2:179)"/>
<path d="M56.7756 58.4535H61.0062V60.1127C62.0582 58.8686 63.4946 58.0939 65.2642 58.0939C65.4702 58.0964 65.6758 58.1137 65.8795 58.1457V62.9402C65.3902 62.8334 64.8922 62.7726 64.3919 62.7586C62.5449 62.7586 61.1859 63.7175 61.1859 66.1299V72.6631H56.7756V58.4535Z" fill="url(#paint2_linear_2:179)"/>
<path d="M66.9826 65.5583C66.9826 60.9947 70.0601 58.0901 74.7786 58.0901C79.4722 58.0901 82.5496 60.9921 82.5496 65.5583C82.5496 70.1473 79.4722 73.0026 74.7786 73.0026C70.0626 73 66.9826 70.1523 66.9826 65.5583ZM77.9846 65.5583C77.9846 63.4841 76.703 62.1088 74.7786 62.1088C72.8305 62.1088 71.5476 63.4841 71.5476 65.5583C71.5476 67.6579 72.8305 68.9802 74.7786 68.9802C76.703 68.9802 77.9846 67.6579 77.9846 65.5583Z" fill="url(#paint3_linear_2:179)"/>
<path d="M104.273 54.2002V72.6619H99.8887V63.8209L95.3749 69.6022H93.8099L89.2961 63.8726V72.6619H84.9133V54.2002H87.2469L94.6099 63.6909L101.944 54.2002H104.273Z" fill="#1A1A1A"/>
<path d="M106.609 65.5583C106.609 60.9946 109.23 58.0636 113.098 58.0636C114.457 58.0636 115.996 58.4535 117.022 59.4642V58.4548H121.382V72.6619H117.123V71.4695C116.125 72.6884 114.502 73 113.277 73C109.198 73 106.609 70.069 106.609 65.5583ZM117.123 67.5026V63.5093C116.61 62.5503 115.482 62.0053 114.303 62.0053C112.482 62.0053 111.173 63.2241 111.173 65.5318C111.173 67.7361 112.378 69.0836 114.405 69.0836C115.533 69.0836 116.559 68.6167 117.123 67.5026Z" fill="#1A1A1A"/>
<path d="M124.331 58.4535H128.562V59.5676C129.772 58.6155 131.26 58.0959 132.794 58.0901C136.512 58.0901 138 59.8276 138 64.0544V72.6619H133.564V65.3502C133.564 62.9125 132.896 62.0318 131.204 62.0318C130.734 62.0334 130.27 62.1385 129.845 62.3399C129.42 62.5412 129.043 62.834 128.741 63.1976V72.6606H124.331V58.4535Z" fill="#1A1A1A"/>
<path d="M84.7785 35.8332C82.033 38.0059 80.8125 40.9659 80.8125 40.9659C80.8125 40.9659 86.0801 42.4913 90.5091 40.5672C92.718 39.6083 94.3004 37.9731 95.3324 36.5738C91.6996 36.8905 88.0756 36.5145 84.7785 35.8332Z" fill="url(#paint4_linear_2:179)"/>
<path d="M71.8572 32.4379C71.7415 32.3899 71.6188 32.3613 71.494 32.3533C71.3361 32.3162 71.1745 32.2976 71.0123 32.2978H48.6852C48.3965 32.2805 48.1073 32.323 47.8354 32.4227C47.5636 32.5225 47.3148 32.6774 47.1043 32.8779C46.8938 33.0784 46.7261 33.3203 46.6114 33.5888C46.4968 33.8573 46.4377 34.1466 46.4377 34.439C46.4377 34.7314 46.4968 35.0207 46.6114 35.2892C46.7261 35.5576 46.8938 35.7995 47.1043 36.0001C47.3148 36.2006 47.5636 36.3555 47.8354 36.4553C48.1073 36.555 48.3965 36.5975 48.6852 36.5801H65.243C63.3075 38.7327 62.4726 40.7098 62.4726 40.7098C62.4726 40.7098 69.6134 42.7727 75.6173 40.1698C78.3902 38.9661 80.4344 36.9751 81.8333 35.1809C77.7113 34.1664 74.0299 33.3526 71.8572 32.4379Z" fill="url(#paint5_linear_2:179)"/>
<path d="M122.282 18.4289C117.303 12.9707 108.804 18.8327 108.457 19.0762L108.396 19.1002C107.869 19.3286 105.19 27.7822 93.4879 32.1149C91.6035 32.8127 89.5943 32.9464 87.665 32.9982C89.0125 32.9209 90.3497 32.7139 91.6584 32.3799C91.9932 32.3325 92.3199 32.2387 92.6293 32.1011C102.482 28.9846 107.446 18.463 107.446 18.463C107.446 18.463 101.778 15.4841 94.8869 14.8204V13.4703C94.8872 12.9626 94.7866 12.4599 94.5911 11.9922C94.3956 11.5244 94.1091 11.1012 93.7487 10.7475C94.7017 9.94664 95.3866 8.8675 95.7095 7.65787C96.0324 6.44825 95.9775 5.16728 95.5525 3.99038C95.1274 2.81348 94.353 1.79819 93.3351 1.08353C92.3172 0.368879 91.1058 -0.0101969 89.8666 -0.0017856C88.6274 0.00662571 87.4211 0.402113 86.4128 1.13052C85.4045 1.85893 84.6436 2.88464 84.2342 4.0672C83.8248 5.24977 83.787 6.53136 84.1259 7.7365C84.4649 8.94163 85.164 10.0114 86.1275 10.7993C85.4293 11.509 85.0376 12.4694 85.038 13.4703V15.8777L84.927 15.9168H62.9405C62.3985 15.9466 61.8885 16.1852 61.5152 16.5836C61.142 16.982 60.934 17.5099 60.934 18.0586C60.934 18.6074 61.142 19.1352 61.5152 19.5336C61.8885 19.932 62.3985 20.1707 62.9405 20.2004H77.5565C76.1583 21.3698 74.8703 22.6678 73.7091 24.0777H55.7847C55.4969 24.0619 55.2088 24.1056 54.9382 24.2061C54.6676 24.3066 54.4201 24.4618 54.2108 24.6622C54.0015 24.8627 53.8348 25.1041 53.7209 25.3719C53.6069 25.6396 53.5482 25.928 53.5482 26.2195C53.5482 26.511 53.6069 26.7994 53.7209 27.0671C53.8348 27.3349 54.0015 27.5763 54.2108 27.7768C54.4201 27.9772 54.6676 28.1324 54.9382 28.2329C55.2088 28.3334 55.4969 28.3771 55.7847 28.3613H71.2244C71.8234 28.9606 73.4907 30.4633 75.8032 31.2279C81.2942 33.4448 90.705 36.2484 99.4532 34.0353C97.238 39.2399 99.095 44.9177 99.095 44.9177C99.095 44.9177 106.498 42.6971 109.714 37.1959C111.76 33.6883 111.619 29.7063 111.245 27.2712C113.516 26.4637 115.713 25.4577 117.811 24.2644C125.087 20.1752 123.738 20.0263 122.282 18.4289ZM89.905 2.77591C90.5505 2.77566 91.1816 2.96896 91.7184 3.33135C92.2553 3.69374 92.6737 4.20896 92.9209 4.81183C93.1681 5.41469 93.2329 6.07814 93.1071 6.71825C92.9814 7.35836 92.6707 7.94638 92.2143 8.40794C91.758 8.8695 91.1765 9.18386 90.5434 9.31127C89.9103 9.43868 89.2541 9.37342 88.6577 9.12373C88.0614 8.87404 87.5516 8.45114 87.193 7.90853C86.8343 7.36591 86.6429 6.72795 86.6429 6.07534C86.6439 5.2008 86.9879 4.36235 87.5994 3.74384C88.2109 3.12533 89.0401 2.77724 89.905 2.77591ZM87.2182 14.592C87.2182 13.8475 87.5107 13.1334 88.0315 12.6069C88.5522 12.0804 89.2585 11.7847 89.9949 11.7847C90.3601 11.7842 90.7217 11.8565 91.0592 11.9975C91.3967 12.1385 91.7034 12.3455 91.9616 12.6065C92.2199 12.8675 92.4247 13.1774 92.5643 13.5186C92.704 13.8597 92.7757 14.2253 92.7753 14.5945V27.2535C92.7753 27.998 92.4828 28.7121 91.9621 29.2386C91.4413 29.7651 90.7351 30.0608 89.9986 30.0608C89.4329 30.0604 88.8809 29.8842 88.4175 29.5561C88.2066 29.4695 88.0307 29.3135 87.9183 29.1133C87.4667 28.6014 87.2171 27.9394 87.217 27.2535L87.2182 14.592ZM116.893 19.1166C116.841 19.4938 116.649 19.8368 116.355 20.0755C116.022 20.3405 115.678 20.3771 115.272 20.3771C114.464 20.3771 113.966 19.4434 114.024 18.7368C114.076 18.3594 114.268 18.0162 114.562 17.7779C114.894 17.5117 115.24 17.4751 115.645 17.4751C116.453 17.4801 116.951 18.4138 116.892 19.1191L116.893 19.1166Z" fill="url(#paint6_linear_2:179)"/>
</g>
<defs>
<linearGradient id="paint0_linear_2:179" x1="27.1342" y1="59.3708" x2="65.3035" y2="75.3065" gradientUnits="userSpaceOnUse">
<stop stop-color="#00DA5D"/>
<stop offset="1" stop-color="#008049"/>
</linearGradient>
<linearGradient id="paint1_linear_2:179" x1="-402.321" y1="8306.93" x2="4438.05" y2="9978.57" gradientUnits="userSpaceOnUse">
<stop stop-color="#00DA5D"/>
<stop offset="1" stop-color="#008049"/>
</linearGradient>
<linearGradient id="paint2_linear_2:179" x1="-76.8686" y1="6074.59" x2="2980.24" y2="6880.95" gradientUnits="userSpaceOnUse">
<stop stop-color="#00DA5D"/>
<stop offset="1" stop-color="#008049"/>
</linearGradient>
<linearGradient id="paint3_linear_2:179" x1="85.6629" y1="5655.62" x2="4767.73" y2="7718.71" gradientUnits="userSpaceOnUse">
<stop stop-color="#00DA5D"/>
<stop offset="1" stop-color="#008049"/>
</linearGradient>
<linearGradient id="paint4_linear_2:179" x1="3663.76" y1="461.415" x2="4442.63" y2="2737.66" gradientUnits="userSpaceOnUse">
<stop stop-color="#00DA5D"/>
<stop offset="1" stop-color="#008049"/>
</linearGradient>
<linearGradient id="paint5_linear_2:179" x1="5423.04" y1="1476.9" x2="6304" y2="5373.38" gradientUnits="userSpaceOnUse">
<stop stop-color="#00DA5D"/>
<stop offset="1" stop-color="#008049"/>
</linearGradient>
<linearGradient id="paint6_linear_2:179" x1="21678.7" y1="898.391" x2="30208.8" y2="16141.1" gradientUnits="userSpaceOnUse">
<stop stop-color="#00DA5D"/>
<stop offset="1" stop-color="#008049"/>
</linearGradient>
<clipPath id="clip0_2:179">
<rect width="170" height="73" fill="white"/>
</clipPath>
</defs>
</svg>
