<svg width="24" height="32" viewBox="0 0 24 32" fill="none" xmlns="http://www.w3.org/2000/svg">
<path d="M23.9837 9.52587C23.8621 7.46487 23.0915 5.6362 21.6478 4.06234C19.5714 1.79149 16.8786 0.682299 13.6668 0.674805C9.78166 0.674805 5.89657 0.674805 2.00338 0.674805H1.63028V14.8545H0V19.4487H1.61406V21.5022H0V26.0963H1.63028V31.3275H6.61844V26.0888H12.8151V21.5022H6.64277V19.4561H7.05642C9.23013 19.4561 11.3957 19.4636 13.5613 19.4487C14.121 19.4487 14.6887 19.4187 15.2403 19.3437C17.8925 19.0065 20.0743 17.8598 21.7533 15.9487C23.3835 14.0826 24.1216 11.9241 23.9837 9.52587ZM17.4464 13.5055C16.4325 14.3898 15.2321 14.8395 13.8452 14.847C11.493 14.862 9.14091 14.847 6.78877 14.847C6.74821 14.847 6.70766 14.8395 6.62655 14.832V5.29894C6.68333 5.29145 6.73199 5.27646 6.78066 5.27646C9.20579 5.27646 11.6309 5.25397 14.0642 5.28395C16.1 5.30644 17.9574 6.56552 18.6874 8.32674C19.4336 10.1629 18.9469 12.1864 17.4464 13.5055Z" fill="black"/>
</svg>
