<svg width="149" height="138" viewBox="0 0 149 138" fill="none" xmlns="http://www.w3.org/2000/svg">
<path d="M132.509 52.5465C137.903 68.5253 131.25 115.476 94.8902 112.808C84.4563 112.041 72.9202 100.476 64.2085 103.135C55.4967 105.793 51.2625 115.768 34.994 112.812C18.7255 109.856 15.1801 93.1821 18.8541 80.6672C22.528 68.1523 13.1136 64.3659 14.0091 53.7339C14.8219 44.008 27.0606 41.6423 32.8011 33.9298C38.5416 26.2172 41.0284 11.2794 53.7172 10.9179C67.8525 10.5061 67.019 30.3904 86.0108 27.1369C107.003 23.5403 125.705 32.3946 132.509 52.5465Z" fill="#ECF5EE"/>
<path d="M79.4298 15.4594C79.4902 15.149 79.5133 14.8326 79.4987 14.5168C79.4977 14.4912 79.4894 14.4664 79.4747 14.4453C79.4601 14.4242 79.4397 14.4078 79.416 14.3978L78.7456 14.1004V14.0592C78.6957 13.8224 78.6186 13.5921 78.5159 13.3728L78.4976 13.3339L78.8558 12.6933C78.8697 12.6718 78.8771 12.6468 78.8771 12.6212C78.8771 12.5957 78.8697 12.5706 78.8558 12.5492C78.7689 12.4177 78.673 12.2923 78.5688 12.1739C78.4666 12.0542 78.357 11.9411 78.2404 11.8353C78.222 11.8181 78.199 11.8066 78.1741 11.8021C78.1492 11.7977 78.1236 11.8005 78.1003 11.8102L77.4115 12.0779L77.3747 12.0527C77.1741 11.922 76.9591 11.8146 76.7341 11.7324L76.6951 11.7164L76.4976 11.0094C76.4911 10.9847 76.4777 10.9624 76.459 10.945C76.4404 10.9276 76.4171 10.9158 76.392 10.911C76.0836 10.8509 75.7689 10.8286 75.4551 10.8447C75.4297 10.8458 75.4052 10.8542 75.3845 10.8688C75.3637 10.8834 75.3476 10.9036 75.338 10.927L75.0464 11.5997H75.0028C74.765 11.649 74.5338 11.7258 74.3139 11.8285L74.2749 11.8468L73.6411 11.483C73.6198 11.4696 73.5951 11.4625 73.5699 11.4625C73.5447 11.4625 73.5201 11.4696 73.4988 11.483C73.3686 11.571 73.2436 11.6665 73.1245 11.769C73.0065 11.882 72.8946 12.0012 72.7892 12.1259C72.7725 12.145 72.7613 12.1683 72.7568 12.1933C72.7524 12.2183 72.7548 12.2441 72.764 12.2678L73.0303 12.9541L73.0074 12.9907C72.8757 13.1936 72.7679 13.4108 72.6859 13.6382L72.6721 13.6771L71.9672 13.8784C71.9431 13.8857 71.9214 13.8994 71.9045 13.9179C71.8875 13.9364 71.8759 13.9591 71.8708 13.9837C71.8126 14.2951 71.7902 14.6121 71.8042 14.9286C71.8052 14.9542 71.8135 14.979 71.8281 15C71.8428 15.0211 71.8631 15.0376 71.8868 15.0476L72.5596 15.3404V15.3816C72.6123 15.6176 72.6893 15.8476 72.7892 16.068L72.8076 16.1069L72.4494 16.7475C72.4365 16.7697 72.4297 16.795 72.4297 16.8207C72.4297 16.8464 72.4365 16.8716 72.4494 16.8939C72.5527 17.0403 72.6423 17.1616 72.7341 17.2691C72.8384 17.3869 72.9488 17.4991 73.0648 17.6054C73.0832 17.6227 73.1062 17.6342 73.1311 17.6387C73.1559 17.6431 73.1815 17.6403 73.2048 17.6306L73.8937 17.3629L73.9304 17.3858C74.1305 17.5167 74.3446 17.6249 74.5688 17.7084L74.6101 17.7221L74.8076 18.4337C74.8141 18.4583 74.8274 18.4807 74.8461 18.4981C74.8648 18.5155 74.8881 18.5273 74.9132 18.5321C75.2212 18.5896 75.5348 18.6111 75.8478 18.5961C75.8727 18.5946 75.8968 18.5864 75.9175 18.5723C75.9381 18.5582 75.9545 18.5387 75.9649 18.516L76.2611 17.8297H76.3024C76.5407 17.7822 76.7721 17.7053 76.9913 17.6009L77.0303 17.5826L77.6686 17.9441C77.6899 17.9575 77.7146 17.9646 77.7398 17.9646C77.765 17.9646 77.7897 17.9575 77.811 17.9441C77.9407 17.8554 78.0657 17.7599 78.1853 17.6581C78.3025 17.5531 78.4137 17.4415 78.5182 17.324C78.5358 17.3049 78.5477 17.2813 78.5526 17.2559C78.5574 17.2304 78.5551 17.2041 78.5458 17.1799L78.2771 16.4935L78.3001 16.4569C78.431 16.254 78.5381 16.0367 78.6193 15.8094L78.6353 15.7683L79.3334 15.5578C79.3567 15.5513 79.3779 15.5388 79.3949 15.5215C79.4118 15.5042 79.4239 15.4828 79.4298 15.4594ZM79.1864 15.2695V15.3221L78.4976 15.5189C78.476 15.5248 78.4562 15.5361 78.4402 15.5517C78.4241 15.5673 78.4123 15.5867 78.4057 15.6081C78.3167 15.8876 78.1859 16.1522 78.0177 16.3929C78.0045 16.4112 77.9961 16.4325 77.9933 16.4549C77.9904 16.4773 77.9933 16.5 78.0016 16.521L78.2679 17.1936L78.2289 17.2325C78.1531 17.3103 78.082 17.3789 78.0131 17.4407C77.9442 17.5025 77.8592 17.5688 77.7835 17.6283L77.7398 17.6604L77.1153 17.3057C77.0955 17.2951 77.0734 17.2896 77.051 17.2896C77.0285 17.2896 77.0064 17.2951 76.9867 17.3057C76.7282 17.4386 76.451 17.5319 76.1646 17.5826C76.1424 17.5863 76.1214 17.5956 76.1037 17.6096C76.0861 17.6236 76.0723 17.6419 76.0636 17.6626L75.772 18.3261H75.6824C75.4957 18.326 75.3092 18.3122 75.1245 18.285H75.0694L74.8558 17.5757C74.8491 17.5543 74.8375 17.5347 74.822 17.5184C74.8065 17.5021 74.7874 17.4897 74.7663 17.4819C74.4899 17.3923 74.229 17.2611 73.9924 17.093C73.9741 17.0798 73.9527 17.0714 73.9302 17.0686C73.9077 17.0658 73.8849 17.0687 73.8638 17.0769L73.1957 17.3423L73.1589 17.3034C73.0854 17.2325 73.0166 17.1616 72.9523 17.0861C72.888 17.0106 72.8306 16.9374 72.7663 16.8573L72.7341 16.8138L73.0854 16.1847C73.0961 16.1646 73.1017 16.1422 73.1017 16.1195C73.1017 16.0967 73.0961 16.0743 73.0854 16.0542C72.9559 15.7923 72.8639 15.5135 72.8122 15.226C72.8075 15.2042 72.7979 15.1837 72.7839 15.1663C72.77 15.1488 72.7521 15.1348 72.7318 15.1254L72.0728 14.8371V14.7822C72.0713 14.5808 72.0851 14.3797 72.1142 14.1804V14.1255L72.803 13.9288C72.8248 13.9226 72.8447 13.9112 72.8611 13.8957C72.8775 13.8802 72.8899 13.8609 72.8972 13.8395C72.9904 13.5549 73.1258 13.2857 73.299 13.0411C73.3117 13.0225 73.3197 13.0012 73.3225 12.9789C73.3253 12.9567 73.3227 12.934 73.3151 12.9129L73.0533 12.2403L73.0923 12.2014C73.1612 12.1282 73.2324 12.0596 73.3082 11.9932C73.3839 11.9269 73.4666 11.8605 73.5378 11.8033L73.5814 11.7713L74.2106 12.1259C74.2303 12.1365 74.2524 12.1421 74.2749 12.1421C74.2973 12.1421 74.3194 12.1365 74.3392 12.1259C74.5977 11.993 74.8748 11.8997 75.1612 11.8491C75.1837 11.8453 75.205 11.836 75.223 11.822C75.2411 11.8081 75.2553 11.7898 75.2645 11.769L75.5516 11.1055H75.6044C75.8042 11.1019 76.0039 11.1157 76.2014 11.1467H76.2565L76.4494 11.833C76.455 11.855 76.4662 11.8751 76.4819 11.8916C76.4976 11.908 76.5172 11.9201 76.5389 11.9269C76.8171 12.0295 77.0781 12.1738 77.3127 12.3547C77.3309 12.3675 77.352 12.3754 77.3741 12.3778C77.3962 12.3802 77.4185 12.377 77.439 12.3684L78.1072 12.1053L78.1462 12.1442C78.2243 12.2197 78.2909 12.2906 78.3529 12.373C78.4149 12.4554 78.4769 12.524 78.5389 12.6018L78.571 12.6475L78.2174 13.2699C78.2068 13.29 78.2012 13.3123 78.2012 13.3351C78.2012 13.3578 78.2068 13.3802 78.2174 13.4003C78.3495 13.6614 78.4423 13.9405 78.493 14.2285C78.4968 14.2509 78.5061 14.2721 78.5201 14.2901C78.5341 14.3081 78.5524 14.3223 78.5733 14.3314L79.2186 14.6151V14.6701C79.223 14.8704 79.2123 15.0708 79.1864 15.2695Z" fill="#4D5A8F"/>
<path d="M75.6596 18.6396C75.4084 18.6384 75.1579 18.6147 74.911 18.5687C74.8788 18.5619 74.8491 18.5466 74.8249 18.5245C74.8006 18.5024 74.7828 18.4742 74.7732 18.4428L74.5826 17.7564H74.5597C74.333 17.6727 74.1166 17.5637 73.9144 17.4316L73.8938 17.4178L73.2348 17.6787C73.204 17.6909 73.1705 17.6941 73.1379 17.6881C73.1054 17.682 73.0753 17.6668 73.0511 17.6443C72.9346 17.5386 72.8242 17.4263 72.7204 17.308C72.6263 17.1959 72.5344 17.0792 72.4311 16.9282C72.4136 16.9 72.4044 16.8676 72.4044 16.8344C72.4044 16.8013 72.4136 16.7688 72.4311 16.7406L72.7778 16.116V16.0954C72.677 15.8754 72.6 15.6453 72.5482 15.409V15.3862L71.8708 15.0819C71.8406 15.0681 71.8148 15.0463 71.7962 15.0188C71.7775 14.9914 71.7668 14.9594 71.7652 14.9263C71.7513 14.6076 71.7736 14.2883 71.8318 13.9745C71.8381 13.9423 71.8533 13.9124 71.8756 13.8882C71.8978 13.864 71.9264 13.8463 71.9581 13.8373L72.647 13.6428V13.6222C72.7306 13.393 72.8392 13.1735 72.9707 12.9678L72.9845 12.9473L72.725 12.2815C72.7133 12.2508 72.7103 12.2174 72.7164 12.1851C72.7225 12.1528 72.7374 12.1228 72.7595 12.0984C72.8661 11.9799 72.9788 11.8669 73.097 11.7598C73.2188 11.6571 73.3461 11.5608 73.4782 11.4716C73.5057 11.4543 73.5375 11.4451 73.57 11.4451C73.6025 11.4451 73.6344 11.4543 73.6619 11.4716L74.2795 11.8239H74.3002C74.5207 11.7226 74.7517 11.6458 74.9891 11.5951H75.012L75.2945 10.9408C75.3071 10.9107 75.328 10.8848 75.3549 10.8662C75.3817 10.8475 75.4133 10.8369 75.446 10.8355C75.7637 10.8182 76.0822 10.8405 76.3943 10.9019C76.4261 10.9084 76.4553 10.9237 76.4789 10.9459C76.5024 10.9682 76.5192 10.9965 76.5275 11.0277L76.7204 11.7141H76.7411C76.9689 11.7969 77.1862 11.9059 77.3886 12.039L77.4093 12.0527L78.0706 11.7758C78.1013 11.7636 78.1349 11.7604 78.1674 11.7664C78.1999 11.7725 78.23 11.7877 78.2542 11.8102C78.3715 11.916 78.4819 12.0291 78.5849 12.1488C78.6886 12.2697 78.7852 12.3965 78.8742 12.5286C78.8918 12.5563 78.9011 12.5884 78.9011 12.6212C78.9011 12.654 78.8918 12.6861 78.8742 12.7139L78.5298 13.3362V13.3591C78.6316 13.5787 78.7086 13.8089 78.7594 14.0455V14.0683L79.4115 14.3566C79.4417 14.3698 79.4676 14.3911 79.4863 14.4182C79.505 14.4453 79.5156 14.4771 79.5172 14.5099C79.5318 14.8288 79.5087 15.1482 79.4483 15.4617C79.4421 15.4937 79.4269 15.5234 79.4046 15.5472C79.3822 15.5711 79.3536 15.5882 79.322 15.5967L78.6331 15.7911V15.814C78.557 16.0446 78.4546 16.2657 78.3277 16.4729L78.3163 16.4935L78.578 17.157C78.5892 17.1882 78.5919 17.2217 78.5858 17.2543C78.5798 17.2868 78.5652 17.3172 78.5436 17.3423C78.4369 17.4601 78.3242 17.5724 78.206 17.6787C78.0849 17.7813 77.9584 17.8775 77.8272 17.9669C77.7997 17.9842 77.7678 17.9934 77.7353 17.9934C77.7028 17.9934 77.671 17.9842 77.6435 17.9669L77.0258 17.6169H77.0028C76.783 17.7198 76.5518 17.7966 76.314 17.8457H76.291L76.004 18.532C75.9908 18.5615 75.9696 18.5868 75.9429 18.605C75.9161 18.6231 75.8848 18.6335 75.8524 18.635C75.7904 18.6373 75.7261 18.6396 75.6596 18.6396ZM73.903 17.3149L73.9558 17.3515C74.1546 17.4791 74.3662 17.5857 74.5872 17.6695L74.6469 17.6901L74.849 18.4199C74.8542 18.4374 74.864 18.4531 74.8773 18.4656C74.8906 18.478 74.907 18.4868 74.9248 18.4909C75.2274 18.5478 75.5356 18.5693 75.8432 18.5549C75.8612 18.5536 75.8785 18.5476 75.8934 18.5376C75.9083 18.5275 75.9203 18.5138 75.9282 18.4977L76.2313 17.8114H76.2933C76.5248 17.7607 76.7497 17.684 76.9638 17.5826L77.0212 17.5551L77.6756 17.9258C77.6907 17.9353 77.7082 17.9404 77.7261 17.9404C77.744 17.9404 77.7615 17.9353 77.7766 17.9258C77.9098 17.8342 78.0338 17.7381 78.1486 17.6421C78.2651 17.5378 78.3755 17.427 78.4793 17.3103C78.4918 17.2971 78.5002 17.2806 78.5035 17.2627C78.5067 17.2448 78.5047 17.2264 78.4976 17.2096L78.2198 16.5072L78.2565 16.4546C78.385 16.2534 78.4905 16.0386 78.5711 15.814L78.5941 15.7545L79.3151 15.5486C79.3327 15.544 79.3485 15.5344 79.3607 15.521C79.373 15.5076 79.381 15.491 79.384 15.4731C79.4444 15.1666 79.4675 14.854 79.4529 14.5419C79.4515 14.5235 79.4452 14.5057 79.4347 14.4905C79.4242 14.4752 79.4099 14.463 79.3932 14.455L78.7043 14.153L78.6928 14.0889C78.6403 13.8565 78.5634 13.6303 78.4632 13.414L78.4357 13.3568L78.8053 12.6979C78.8149 12.6824 78.8199 12.6646 78.8199 12.6464C78.8199 12.6282 78.8149 12.6104 78.8053 12.5949C78.7217 12.4583 78.6296 12.3268 78.5298 12.2014C78.4272 12.0843 78.3183 11.9728 78.2037 11.8674C78.1903 11.8551 78.1737 11.8469 78.1559 11.8437C78.138 11.8405 78.1196 11.8423 78.1027 11.8491L77.4138 12.1236L77.361 12.0893C77.1627 11.9594 76.9501 11.8527 76.7273 11.7713L76.6676 11.7484L76.4632 11.0208C76.4579 11.0037 76.448 10.9883 76.4347 10.9762C76.4214 10.9642 76.4051 10.9559 76.3875 10.9522C76.0852 10.8927 75.7767 10.8704 75.469 10.8858C75.4507 10.8872 75.4332 10.8934 75.4182 10.9039C75.4033 10.9144 75.3914 10.9287 75.384 10.9453L75.0855 11.6317L75.0235 11.6454C74.7914 11.6964 74.5657 11.7732 74.3507 11.8742L74.2933 11.9017L73.6435 11.5287C73.628 11.5192 73.6101 11.5142 73.5918 11.5142C73.5736 11.5142 73.5557 11.5192 73.5402 11.5287C73.412 11.6168 73.2886 11.7115 73.1705 11.8125C73.0538 11.9172 72.9427 12.028 72.8375 12.1442C72.8253 12.1576 72.817 12.1741 72.8138 12.1919C72.8105 12.2097 72.8124 12.2281 72.8192 12.2449L73.0924 12.9495L73.058 13.0045C72.9288 13.2048 72.8225 13.4189 72.7411 13.6428L72.7204 13.7023L71.9971 13.9059C71.9796 13.9114 71.964 13.9216 71.9519 13.9353C71.9397 13.949 71.9316 13.9657 71.9282 13.9837C71.87 14.2912 71.8476 14.6045 71.8617 14.9171C71.863 14.9353 71.8692 14.9528 71.8798 14.9677C71.8903 14.9826 71.9046 14.9944 71.9214 15.0018L72.6102 15.3038L72.624 15.3679C72.6754 15.5998 72.7524 15.8254 72.8536 16.0405L72.8789 16.1L72.5115 16.7589C72.5019 16.7744 72.4969 16.7922 72.4969 16.8104C72.4969 16.8286 72.5019 16.8464 72.5115 16.8619C72.5974 16.9932 72.6901 17.12 72.7893 17.2417C72.8921 17.3579 73.0009 17.4686 73.1154 17.5734C73.1288 17.5856 73.1454 17.5938 73.1632 17.5971C73.1811 17.6003 73.1995 17.5985 73.2164 17.5917L73.903 17.3149ZM75.6641 18.365C75.4751 18.3641 75.2863 18.3496 75.0993 18.3216H75.0212L74.8191 17.5986C74.8151 17.5833 74.8073 17.5692 74.7965 17.5577C74.7857 17.5461 74.7722 17.5374 74.7572 17.5322C74.4767 17.4408 74.2119 17.3073 73.9719 17.1364C73.9577 17.129 73.9419 17.1251 73.9259 17.1251C73.9099 17.1251 73.8942 17.129 73.88 17.1364L73.1912 17.411L73.1337 17.3538C73.0603 17.2851 72.9914 17.2096 72.9248 17.125C72.8582 17.0403 72.8008 16.9717 72.7365 16.8962L72.6906 16.8298L73.0534 16.1801C73.0612 16.1657 73.0653 16.1496 73.0653 16.1332C73.0653 16.1168 73.0612 16.1007 73.0534 16.0863C72.9243 15.8137 72.8353 15.5239 72.7893 15.226C72.7866 15.2103 72.7802 15.1955 72.7706 15.1828C72.761 15.1701 72.7485 15.1598 72.7342 15.1528L72.0454 14.8531V14.773C72.0436 14.5693 72.0581 14.3658 72.089 14.1644L72.1005 14.0866L72.8169 13.883C72.832 13.8779 72.8459 13.8695 72.8574 13.8585C72.8689 13.8474 72.8778 13.8339 72.8835 13.819C72.9737 13.5374 73.1053 13.2706 73.2738 13.0273C73.2829 13.0137 73.2887 12.9981 73.2907 12.9818C73.2927 12.9655 73.2909 12.949 73.2853 12.9335L73.0143 12.2472L73.0695 12.19C73.1406 12.1167 73.2141 12.0458 73.2876 11.9795C73.3611 11.9131 73.4506 11.8445 73.5287 11.7896L73.5907 11.7415L74.2359 12.1099C74.2505 12.1171 74.2667 12.1209 74.283 12.1209C74.2993 12.1209 74.3154 12.1171 74.3301 12.1099C74.5912 11.9728 74.8726 11.8778 75.1636 11.8285C75.1793 11.8257 75.1942 11.8191 75.2066 11.8091C75.2191 11.799 75.2288 11.786 75.2348 11.7713L75.531 11.0849H75.6113C75.8135 11.0807 76.0156 11.0945 76.2152 11.1261H76.2933L76.4931 11.8491C76.4971 11.8647 76.5052 11.879 76.5165 11.8906C76.5277 11.9023 76.5418 11.9108 76.5574 11.9154C76.8373 12.007 77.102 12.1396 77.3427 12.3089C77.3561 12.3172 77.3716 12.3216 77.3874 12.3216C77.4033 12.3216 77.4188 12.3172 77.4322 12.3089L78.1211 12.0367L78.1785 12.0916C78.2565 12.1694 78.3254 12.2403 78.3874 12.3204C78.4494 12.4004 78.5114 12.4714 78.5757 12.5492L78.6216 12.6132L78.2565 13.2653C78.2491 13.2798 78.2452 13.2959 78.2452 13.3122C78.2452 13.3285 78.2491 13.3446 78.2565 13.3591C78.3908 13.6288 78.4829 13.9173 78.5298 14.2148C78.5322 14.2309 78.5387 14.2461 78.5488 14.2589C78.5588 14.2718 78.5721 14.2818 78.5872 14.288L79.2761 14.5877V14.6701C79.2768 14.8722 79.2622 15.0741 79.2324 15.2741V15.3541L78.516 15.5555C78.5002 15.5599 78.4857 15.5684 78.474 15.58C78.4624 15.5916 78.4539 15.606 78.4494 15.6218C78.3594 15.9046 78.227 16.1723 78.0568 16.4157C78.0477 16.429 78.0419 16.4442 78.0399 16.4601C78.0379 16.476 78.0398 16.4922 78.0453 16.5072L78.3208 17.1936L78.2634 17.2508C78.1877 17.3309 78.1165 17.3995 78.0453 17.4613C77.9741 17.5231 77.8915 17.5894 77.8157 17.6512L77.7537 17.697L77.1062 17.3309C77.0919 17.3237 77.0762 17.3199 77.0602 17.3199C77.0443 17.3199 77.0285 17.3237 77.0143 17.3309C76.7441 17.4706 76.4535 17.5671 76.1532 17.6169C76.1375 17.6196 76.1227 17.6263 76.1102 17.6363C76.0978 17.6463 76.0881 17.6593 76.0821 17.6741L75.7813 18.3605L75.6641 18.365ZM75.0855 18.2392H75.1154C75.2985 18.2666 75.4835 18.2803 75.6687 18.2804H75.733L76.0155 17.6398C76.0264 17.6131 76.0439 17.5897 76.0664 17.5717C76.0889 17.5537 76.1156 17.5417 76.144 17.5368C76.4263 17.4867 76.6995 17.3949 76.9546 17.2645C76.9799 17.2505 77.0083 17.2432 77.0373 17.2432C77.0662 17.2432 77.0947 17.2505 77.1199 17.2645L77.7192 17.6169L77.7422 17.6009C77.8249 17.5414 77.9014 17.4796 77.9718 17.4155C78.0407 17.3561 78.1096 17.2874 78.1854 17.2096L78.206 17.189L77.9512 16.5416C77.9398 16.5144 77.9355 16.4849 77.9387 16.4557C77.942 16.4265 77.9525 16.3986 77.9695 16.3745C78.1349 16.137 78.2641 15.8764 78.353 15.6012C78.3611 15.5732 78.3764 15.5477 78.3973 15.5272C78.4182 15.5068 78.4441 15.4921 78.4724 15.4845L79.1383 15.2969V15.2672C79.1682 15.0711 79.1827 14.873 79.1819 14.6746V14.6426L78.5459 14.3612C78.5192 14.3496 78.4958 14.3316 78.4778 14.3089C78.4598 14.2861 78.4477 14.2593 78.4425 14.2308C78.3931 13.9467 78.3018 13.6715 78.1716 13.414C78.1581 13.3882 78.1511 13.3596 78.1511 13.3305C78.1511 13.3014 78.1581 13.2728 78.1716 13.247L78.5298 12.6384L78.5114 12.6132C78.4494 12.5286 78.3897 12.4531 78.3277 12.3844C78.2634 12.3085 78.1952 12.236 78.1234 12.1671L78.1027 12.1465L77.4598 12.4004C77.4329 12.4118 77.4037 12.416 77.3747 12.4128C77.3458 12.4096 77.3181 12.3991 77.2944 12.3821C77.0607 12.2159 76.8029 12.0863 76.5298 11.9978C76.5022 11.9884 76.4773 11.9725 76.4573 11.9513C76.4373 11.9302 76.4228 11.9045 76.415 11.8765L76.2336 11.2107H76.2061C76.0109 11.1803 75.8135 11.1665 75.6159 11.1695H75.5861L75.3082 11.8102C75.2973 11.8372 75.2795 11.8609 75.2566 11.879C75.2336 11.8971 75.2063 11.9088 75.1774 11.9131C74.8951 11.9633 74.6219 12.055 74.3668 12.1854C74.3415 12.1994 74.3131 12.2068 74.2841 12.2068C74.2552 12.2068 74.2268 12.1994 74.2015 12.1854L73.5999 11.8422L73.5769 11.8582C73.4988 11.9154 73.4231 11.9749 73.3473 12.0458C73.2715 12.1167 73.2026 12.1785 73.1337 12.2517L73.1131 12.2723L73.3657 12.9221C73.3761 12.9491 73.3796 12.9783 73.376 13.007C73.3724 13.0358 73.3618 13.0632 73.345 13.0868C73.1809 13.3248 73.0525 13.5853 72.9638 13.8601C72.9545 13.8873 72.9388 13.9118 72.918 13.9317C72.8972 13.9516 72.872 13.9663 72.8444 13.9745L72.1762 14.1644V14.1942C72.1472 14.3911 72.1334 14.59 72.1349 14.789V14.8165L72.771 15.0979C72.7972 15.1094 72.8203 15.1271 72.8383 15.1494C72.8563 15.1717 72.8686 15.198 72.8743 15.226C72.9248 15.5103 73.0152 15.786 73.1429 16.0451C73.157 16.0703 73.1644 16.0986 73.1644 16.1275C73.1644 16.1563 73.157 16.1846 73.1429 16.2098L72.7893 16.8024L72.8077 16.8253C72.8697 16.9122 72.9294 16.99 72.9914 17.0541C73.0534 17.1181 73.1223 17.1982 73.1934 17.2691L73.2141 17.2897L73.8593 17.0335C73.8865 17.0231 73.9158 17.0196 73.9446 17.0231C73.9734 17.0267 74.0009 17.0374 74.0247 17.0541C74.2578 17.2198 74.5149 17.3494 74.787 17.4384C74.8148 17.4474 74.8399 17.4633 74.8599 17.4845C74.88 17.5056 74.8944 17.5315 74.9018 17.5597L75.0855 18.2392Z" fill="#4D5A8F"/>
<path d="M75.6527 15.9605C75.4059 15.9632 75.164 15.8928 74.9575 15.7582C74.7511 15.6236 74.5894 15.4309 74.4931 15.2046C74.3968 14.9782 74.3702 14.7285 74.4166 14.487C74.4631 14.2456 74.5805 14.0234 74.754 13.8486C74.9275 13.6738 75.1492 13.5543 75.391 13.5053C75.6328 13.4564 75.8837 13.4801 76.1119 13.5735C76.3401 13.667 76.5353 13.8259 76.6727 14.0301C76.8101 14.2343 76.8834 14.4746 76.8834 14.7204C76.8843 14.8824 76.8532 15.0429 76.7919 15.1929C76.7305 15.3428 76.6401 15.4793 76.5258 15.5945C76.4115 15.7096 76.2756 15.8012 76.1258 15.864C75.976 15.9268 75.8152 15.9596 75.6527 15.9605ZM75.6527 13.6726C75.4448 13.6708 75.2412 13.7305 75.0674 13.8442C74.8937 13.9578 74.7578 14.1204 74.6769 14.3111C74.596 14.5019 74.5738 14.7123 74.613 14.9156C74.6523 15.119 74.7513 15.3061 74.8974 15.4534C75.0436 15.6006 75.2303 15.7013 75.434 15.7426C75.6376 15.784 75.849 15.7641 76.0413 15.6856C76.2336 15.6071 76.3982 15.4735 76.5142 15.3016C76.6302 15.1298 76.6924 14.9275 76.6928 14.7204C76.6938 14.5837 76.6675 14.448 76.6157 14.3214C76.5639 14.1947 76.4874 14.0795 76.3908 13.9823C76.2941 13.8852 76.1792 13.808 76.0525 13.7552C75.9258 13.7025 75.79 13.6752 75.6527 13.6749V13.6726Z" fill="#4D5A8F"/>
<path d="M75.6527 16.0382C75.3905 16.0409 75.1335 15.9659 74.9142 15.8228C74.6948 15.6797 74.5232 15.4748 74.421 15.2343C74.3187 14.9937 74.2906 14.7283 74.34 14.4718C74.3895 14.2152 74.5144 13.9791 74.6988 13.7935C74.8832 13.6078 75.1188 13.4809 75.3758 13.4289C75.6327 13.377 75.8993 13.4022 76.1418 13.5016C76.3843 13.6009 76.5917 13.7698 76.7376 13.9868C76.8836 14.2038 76.9615 14.4591 76.9615 14.7204C76.9624 14.8925 76.9293 15.0632 76.864 15.2226C76.7987 15.382 76.7026 15.527 76.581 15.6494C76.4595 15.7717 76.3149 15.8691 76.1557 15.9358C75.9964 16.0025 75.8255 16.0373 75.6527 16.0382ZM75.6527 13.5604C75.4218 13.5572 75.1951 13.6225 75.0016 13.748C74.808 13.8736 74.6563 14.0536 74.5657 14.2652C74.4751 14.4769 74.4498 14.7106 74.4929 14.9367C74.536 15.1627 74.6455 15.3709 74.8077 15.5347C74.9699 15.6986 75.1772 15.8107 75.4035 15.8567C75.6298 15.9028 75.8647 15.8808 76.0783 15.7935C76.292 15.7062 76.4748 15.5575 76.6034 15.3664C76.732 15.1753 76.8007 14.9505 76.8008 14.7204C76.8029 14.5688 76.7748 14.4183 76.718 14.2777C76.6613 14.137 76.5771 14.009 76.4702 13.9011C76.3634 13.7932 76.2361 13.7075 76.0958 13.649C75.9554 13.5905 75.8048 13.5604 75.6527 13.5604ZM75.6527 15.8483C75.4287 15.851 75.2089 15.7873 75.0213 15.6653C74.8337 15.5433 74.6868 15.3684 74.5992 15.163C74.5115 14.9576 74.4872 14.7308 74.5292 14.5116C74.5712 14.2923 74.6777 14.0905 74.8352 13.9317C74.9926 13.7729 75.1939 13.6643 75.4134 13.6197C75.6329 13.5752 75.8607 13.5966 76.068 13.6814C76.2752 13.7662 76.4525 13.9105 76.5772 14.0959C76.702 14.2813 76.7686 14.4994 76.7686 14.7226C76.7692 15.0188 76.6522 15.3031 76.4431 15.5136C76.2341 15.7241 75.9499 15.8436 75.6527 15.846V15.8483ZM75.6527 13.7571C75.46 13.7549 75.271 13.8098 75.1097 13.9148C74.9484 14.0199 74.8222 14.1703 74.7469 14.3471C74.6717 14.5239 74.651 14.7189 74.6873 14.9075C74.7237 15.096 74.8155 15.2695 74.9511 15.4059C75.0867 15.5423 75.26 15.6355 75.4488 15.6735C75.6377 15.7115 75.8337 15.6927 76.0118 15.6194C76.1899 15.5462 76.3421 15.4218 76.4491 15.2621C76.556 15.1024 76.6129 14.9146 76.6125 14.7226C76.6134 14.5963 76.5893 14.4709 76.5415 14.3539C76.4937 14.2368 76.4232 14.1302 76.3341 14.0403C76.2449 13.9504 76.1388 13.879 76.0219 13.83C75.905 13.781 75.7795 13.7555 75.6527 13.7549V13.7571Z" fill="#4D5A8F"/>
<path d="M58.8836 35.33C58.8836 35.195 58.8721 35.0646 58.8652 34.9364C58.8652 34.8838 58.8652 34.8335 58.8652 34.7831C58.8652 34.6848 58.8537 34.5887 58.8491 34.4926C58.8446 34.3965 58.8491 34.3416 58.8331 34.2638C58.817 34.186 58.8331 34.1288 58.8193 34.0625L58.7986 33.7742C58.7986 33.7353 58.7986 33.6941 58.7986 33.6529L58.7711 33.3097V33.2663C58.6471 31.8294 58.5024 30.9189 58.5024 30.9189C58.1672 32.5868 57.8136 34.2592 57.4806 35.8859C57.4645 35.9683 57.4462 36.0529 57.4278 36.1353C57.3612 36.4533 57.2946 36.7645 57.2303 37.0779C56.8009 39.0981 56.3807 41.02 55.9904 42.7405C56.2728 39.8097 56.1924 36.3893 56.0042 33.3921C55.9238 32.1246 55.8251 30.9326 55.724 29.887V29.8756L55.6965 29.5919V29.5507C55.6965 29.466 55.6804 29.3814 55.6712 29.2967V29.2418C55.6712 29.1617 55.6551 29.0862 55.646 29.013V28.9444L55.6253 28.7453C55.6253 28.711 55.6253 28.6744 55.6138 28.6401C55.6023 28.6058 55.6023 28.5326 55.5977 28.4799L55.584 28.361L55.5702 28.2237C55.5702 28.1779 55.5587 28.1345 55.5541 28.091L55.5403 27.9652L55.5266 27.8325C55.5266 27.8004 55.5266 27.7661 55.5151 27.7341C55.5036 27.7021 55.5151 27.6311 55.4967 27.5808C55.4783 27.5305 55.4967 27.5305 55.4967 27.503C55.4967 27.4756 55.4967 27.4069 55.4806 27.3612V27.2811C55.4806 27.233 55.4691 27.1873 55.4623 27.1392V27.0797C55.4623 27.0294 55.4623 26.9814 55.4439 26.9356V26.8898C55.4439 26.8372 55.4301 26.7846 55.4255 26.732V26.7183C55.4255 26.6702 55.4255 26.6222 55.4072 26.5764V26.5467C55.4072 26.5009 55.4072 26.4597 55.3911 26.4185V26.4002C55.3911 26.3156 55.3704 26.2401 55.3612 26.1714V26.1417C55.3603 26.1234 55.3603 26.1051 55.3612 26.0868V26.041C55.3497 25.961 55.3406 25.9015 55.336 25.8626V25.8534V25.8191C55.2809 26.0204 55.228 26.2286 55.1752 26.4437C55.1752 26.4918 55.15 26.5398 55.1385 26.5878C55.088 26.7983 55.0398 27.0134 54.9915 27.2353C54.9915 27.2719 54.9778 27.3085 54.9686 27.3474C54.9227 27.5762 54.879 27.7867 54.8354 28.0109C54.8354 28.0338 54.8354 28.0544 54.8239 28.075C54.7734 28.3289 54.7275 28.5875 54.6816 28.8529V28.9055C54.1442 32.0582 53.809 35.8287 53.5335 39.0547C53.173 35.0394 52.1167 30.7747 50.778 27.0111C50.6793 26.7274 50.5783 26.446 50.4749 26.1692L50.3372 25.8031C50.2499 25.5743 50.1649 25.3455 50.0777 25.1304L49.9468 24.8033C49.8205 24.4853 49.6896 24.1695 49.561 23.8607C49.5411 23.9171 49.5265 23.9753 49.5174 24.0345C49.5174 24.0345 49.5174 24.0528 49.5174 24.0597C49.5174 24.1215 49.4967 24.1901 49.4899 24.2656C49.4899 24.2656 49.4899 24.2931 49.4899 24.3068C49.4899 24.3823 49.4784 24.4624 49.4738 24.5516C49.4749 24.5707 49.4749 24.5897 49.4738 24.6088C49.4738 24.6957 49.4738 24.7873 49.4738 24.8856V24.9703C49.4738 25.0641 49.4738 25.1602 49.4738 25.2631C49.4738 25.3066 49.4738 25.3501 49.4738 25.3936C49.4738 25.4851 49.4738 25.5789 49.4738 25.6795C49.4738 25.7436 49.4738 25.8122 49.4738 25.8786C49.4738 25.9449 49.4738 26.0387 49.4853 26.1211C49.4967 26.2035 49.4853 26.3224 49.5036 26.4231C49.5036 26.478 49.5036 26.5284 49.5036 26.5833C49.5036 26.6382 49.5036 26.6794 49.5036 26.7297C49.7333 30.1616 50.4566 35.8585 50.8699 40.0545C50.3302 37.0081 49.536 34.012 48.4956 31.0973V31.1156C48.4658 31.0333 48.4336 30.9509 48.4038 30.8708C48.3234 30.642 48.2407 30.4292 48.1581 30.2073C48.0961 30.0449 48.0341 29.8824 47.9698 29.72C47.8825 29.4912 47.7907 29.2624 47.6988 29.0336L47.5059 28.56C47.4118 28.3312 47.3131 28.1024 47.2166 27.8874C47.1477 27.7295 47.0812 27.5716 47.01 27.4138C46.912 27.1941 46.811 26.9745 46.7069 26.7549C46.6334 26.5947 46.5622 26.4368 46.4773 26.2767C46.3747 26.0616 46.2691 25.8466 46.1604 25.6315L45.9308 25.1533C45.8205 24.9383 45.7011 24.7255 45.5978 24.5127C45.5151 24.3548 45.4348 24.197 45.3498 24.0414C45.2281 23.8126 45.1018 23.5838 44.9755 23.355L44.7459 22.9363C44.5393 22.5748 44.328 22.2141 44.1122 21.8542C44.6839 24.6957 46.3464 33.6483 47.4761 38.9883C47.2878 38.4873 47.0926 37.9816 46.8837 37.4669C45.2419 33.447 42.4382 29.1732 39.3062 25.5697L39.2787 25.5377L39.157 25.4004C38.9335 25.1457 38.71 24.8963 38.4865 24.6523L38.312 24.4624C38.0594 24.1878 37.8061 23.9194 37.5519 23.657L37.3981 23.5014C37.1608 23.2589 36.9228 23.021 36.684 22.7876L36.5784 22.6824C36.3143 22.4284 36.0525 22.179 35.7885 21.9388L35.6208 21.7855C35.3522 21.543 35.0858 21.3028 34.8172 21.074L34.8401 21.1449C35.1616 21.7703 35.48 22.3888 35.7954 23.0004C36.2454 23.8729 36.6939 24.7369 37.1409 25.5926C39.5565 30.2371 41.9009 34.7305 44.1902 39.796C44.3165 40.0797 44.4382 40.3542 44.5553 40.6265C42.1834 36.2177 39.2994 32.0537 35.9791 28.647L35.9354 28.6012C35.617 28.2733 35.2933 27.9537 34.9641 27.6426C34.847 27.5305 34.7345 27.4138 34.6105 27.3085C34.4314 27.1415 34.25 26.9768 34.0663 26.8121C33.8826 26.6473 33.6622 26.4551 33.4578 26.2813L33.1019 25.9838C32.8386 25.7642 32.5723 25.5499 32.3028 25.3409L32.0411 25.1419C31.777 24.9428 31.513 24.7484 31.2443 24.5585L31.0951 24.4509C30.7828 24.2221 30.4659 24.0231 30.149 23.8195L29.9401 23.6868C29.6209 23.4854 29.2971 23.2932 28.9734 23.1079L28.792 23.0073C28.4498 22.8151 28.1031 22.6298 27.7541 22.4559C29.3109 24.6202 29.3316 24.5859 30.9688 26.4208C31.2167 26.7022 31.4601 26.9814 31.7012 27.2628L31.9309 27.5373C32.0916 27.7249 32.2477 27.9148 32.4039 28.1024L32.6059 28.4388C32.7414 28.6035 32.8723 28.7705 33.0055 28.9352L33.304 29.3105C35.0973 31.5869 36.6817 33.9 38.227 36.3023C34.1311 32.2663 29.4799 28.8313 24.4131 26.1005C24.1422 25.9541 23.8712 25.8122 23.6003 25.6727L23.226 25.4828C22.9596 25.347 22.6933 25.2143 22.4269 25.0847L22.0894 24.9222C21.7266 24.7484 21.3638 24.5798 21.001 24.4166L20.4476 24.2107C20.7538 24.4792 21.0599 24.7514 21.3661 25.0275L21.4556 25.1099C23.699 27.1507 26.0779 29.4409 28.1284 31.4519C31.4579 34.7168 33.8505 37.5996 36.3947 40.6791L37.1754 41.6217C33.9148 38.4186 29.1915 34.7099 25.4441 32.5456C23.5727 31.4657 21.4189 30.1067 19.2444 28.7636C19.4028 28.8483 19.5429 28.9215 19.6531 28.9764C17.3041 27.5373 14.9 26.1028 12.7829 25.0092L17.3753 29.1L18.5418 30.141L19.5176 31.0287C23.6118 34.7374 26.3236 37.3959 29.5888 40.5281C26.1858 38.1853 23.389 36.6386 16.9367 33.6941L16.7071 33.5843C16.3351 33.415 6.96895 29.3516 6.65437 29.1206C8.49132 30.4933 10.3214 31.8569 12.1446 33.2114L12.3742 33.3784C17.4097 37.1122 22.3351 40.6997 27.0331 43.8456C17.8139 39.3109 12.4683 37.0184 4.98963 33.9137C4.78756 33.8314 2.47759 32.8499 2.27323 32.7698C2.04124 32.6759 1.80254 32.5994 1.55912 32.541C1.61482 32.6203 1.6746 32.6966 1.73822 32.7698L1.76807 32.8041C1.83236 32.8758 1.90125 32.9521 1.97473 33.0329L2.02065 33.0764C2.09413 33.1496 2.1722 33.2251 2.25027 33.3052L2.28701 33.3395C2.37197 33.415 2.45693 33.4928 2.54648 33.5683L2.82202 33.7971L2.86335 33.8314L3.11823 34.0396L3.1963 34.1036L3.33178 34.2135L3.67161 34.488L3.90123 34.6848C3.90123 34.6848 3.90123 34.6848 3.91501 34.6985C8.46836 38.5079 16.7186 44.3787 21.8506 47.7396C19.2352 46.8244 16.2961 45.7056 13.171 44.2597C12.1997 43.8021 11.2123 43.3651 10.2433 42.9396C8.70487 42.2532 7.21694 41.6263 5.93107 41.0886L5.85759 41.0589L5.56138 40.9353L5.42131 40.8759L5.19169 40.7866L5.05163 40.7249L4.84956 40.6425L4.14693 40.3519L4.11248 40.3382L3.86449 40.2352H3.83694L3.60732 40.1392H3.58665L2.75084 39.8005L2.72099 39.7868L2.56944 39.7273H2.54877L1.97702 39.4985H1.95865L1.92651 39.4871L1.8691 39.4642C2.06887 39.6221 2.26405 39.7799 2.45693 39.9378L2.66588 40.1048L3.10216 40.4572L4.49595 41.6011L4.55335 41.6469L5.07688 42.0701L5.20777 42.1754L5.78641 42.633L5.88055 42.7085L6.4546 43.1661C6.4724 43.1777 6.48929 43.1907 6.50512 43.205L7.1756 43.7174C10.1607 45.9688 13.7795 48.339 20.1078 51.4506C21.683 52.2146 23.3015 52.8869 24.955 53.464C21.5337 52.7364 17.9493 51.9013 14.5418 51.0891L14.3857 51.0525C10.5855 50.2014 1.8714 47.8906 1.8714 47.8906C2.39493 48.1743 2.91846 48.4511 3.4397 48.7257L3.63487 48.8264C4.09411 49.0658 4.55335 49.3022 5.01259 49.5356L5.19858 49.6294C5.65782 49.8597 6.11706 50.0885 6.5763 50.3158L6.82658 50.4393C7.25368 50.6483 7.68077 50.8534 8.10786 51.0548L8.17904 51.0914C13.3884 53.5541 18.7938 55.5821 24.3397 57.1544C16.2134 56.6007 13.1205 55.9189 5.9701 55.4155H5.94944L5.45346 55.3812L5.25599 55.3675L4.83808 55.34L4.17678 55.2989L0 54.9099C0.675081 55.215 1.35399 55.5086 2.03672 55.7908C2.26634 55.88 2.4753 55.9624 2.69343 56.0493C3.15267 56.2346 3.62799 56.4199 4.09641 56.5938C4.35129 56.6876 4.60616 56.7769 4.86104 56.8661C5.30421 57.0239 5.74508 57.1795 6.19054 57.3237C6.44771 57.4106 6.70718 57.4907 6.96435 57.5708C7.41441 57.7141 7.86676 57.8529 8.32141 57.9872C8.42933 58.0192 8.53495 58.0558 8.64058 58.0855L8.59465 58.0649C15.1411 59.9525 21.9126 60.8104 28.8012 60.934C28.2707 60.9683 27.7472 60.998 27.2352 61.0209C19.6026 61.3939 9.32484 61.5746 3.66932 61.7965L3.83694 61.856C3.83694 61.856 7.66699 63.2471 7.99075 63.3386C8.85183 63.588 9.72208 63.7962 10.6199 63.9861L10.4431 63.922C15.1641 64.8944 20.6313 65.0019 28.9343 64.3659C26.1789 64.963 23.3408 65.5098 20.4614 65.9308C18.916 66.1596 15.1135 66.6172 11.8507 66.9832H11.8759L9.00108 67.3081C7.44885 67.4843 6.38571 67.601 6.38571 67.601C6.61533 67.6742 6.83118 67.7405 7.0585 67.8046L7.20086 67.8458C7.40982 67.903 7.62107 67.9602 7.83691 68.0128L7.89661 68.0288C13.2513 69.3375 20.6772 69.1842 28.149 67.8595C23.1938 69.4793 18.2019 71.0626 13.3363 72.7922C13.644 72.8609 13.9586 72.9181 14.2754 72.9707L14.5579 73.0142C14.7875 73.0485 15.0355 73.0805 15.2789 73.1057L15.5659 73.1377C15.8874 73.1675 16.2134 73.1926 16.5441 73.2086C16.5992 73.2086 16.6589 73.2086 16.714 73.2086C16.9941 73.2201 17.2743 73.2269 17.5567 73.2269H17.9241C18.1537 73.2269 18.3833 73.2269 18.6129 73.2109C18.7369 73.2109 18.8586 73.2109 18.9803 73.1972C19.3041 73.1812 19.6279 73.1606 19.9562 73.1331C23.4327 72.8426 27.1777 71.916 30.9251 70.5615C28.4223 72.0441 25.9516 73.5701 23.6164 74.8079C23.3339 74.9566 23.0538 75.103 22.7759 75.2426L22.482 75.389C22.2524 75.4966 22.0412 75.6041 21.823 75.707L21.5107 75.8512C21.2811 75.9518 21.0699 76.0479 20.8517 76.1417L20.5831 76.2561C20.28 76.382 19.9815 76.5009 19.6853 76.6085C19.9631 76.6428 20.2432 76.6657 20.5234 76.6794H20.6405C20.9045 76.6908 21.1732 76.6931 21.4396 76.6908H21.5911C21.8552 76.6908 22.1215 76.6725 22.3879 76.6519L22.5234 76.6405C22.7989 76.6176 23.0744 76.5879 23.35 76.5513H23.4097C23.6875 76.5124 23.9654 76.4666 24.2455 76.414L24.3121 76.4026C24.5922 76.3499 24.8724 76.2882 25.1525 76.2241L25.2627 76.1967C25.5406 76.1326 25.8161 76.0594 26.0916 75.9839L26.1904 75.9541C26.4751 75.8741 26.7575 75.7894 27.04 75.6979C30.0824 74.7209 32.9756 73.1972 35.3545 71.8931C35.7793 71.6643 36.1742 71.4355 36.5439 71.2342C35.6254 71.9732 34.6243 72.7716 33.4188 73.6868C32.6082 74.3 31.203 75.4005 29.7449 76.5993L29.6094 76.7114L29.552 76.7595L29.1617 77.1027L29.0331 77.2102L28.7139 77.4802L28.5095 77.6563L28.2799 77.8554L28.0159 78.0842L27.8574 78.2237L27.5543 78.4891L27.4487 78.5852C27.3385 78.6813 27.2191 78.7797 27.1249 78.8758L27.04 78.9536C26.9321 79.052 26.8241 79.1503 26.7231 79.2464L26.3488 79.6011H26.3856H26.4315H26.459L26.5371 79.5873H26.5693L26.6795 79.5667L26.7277 79.5553L26.8609 79.5279L26.9206 79.5164L27.079 79.4798L27.1548 79.4615L27.3339 79.418L27.4211 79.3974L27.6255 79.3448L27.7265 79.3174L27.9562 79.2556L28.071 79.2213C28.1513 79.1984 28.2317 79.1755 28.3144 79.1481L28.4429 79.1092L28.7047 79.0268L28.8494 78.9788L29.1249 78.8849L29.2902 78.8278L29.5727 78.7248L29.7633 78.6539L30.0503 78.5463L30.2615 78.4617L30.5554 78.345L30.7851 78.2443L30.9802 78.162C33.6898 76.9997 37.382 74.9406 41.4853 71.3394C40.7643 72.2157 40.1076 72.9959 39.4394 73.7738L39.3705 73.8538L39.2856 73.9545C38.3671 75.0298 37.4119 76.1257 36.25 77.503L36.1283 77.6472L36.0732 77.7135L35.4808 78.4182H35.4946L35.5267 78.4045H35.5428L35.6071 78.3747H35.6208L35.7219 78.3244L35.7517 78.3107L35.8482 78.2626L35.8918 78.2398L36.0112 78.178L36.0502 78.1574L36.2247 78.0659L36.2707 78.0407L36.4268 77.9561L36.4865 77.9217L36.661 77.8234L36.7161 77.7936L36.9595 77.6541L36.9963 77.6312L37.2259 77.5008L37.3017 77.4527L37.5313 77.3223L37.6002 77.2788L37.9033 77.0912H37.917L38.2155 76.899L38.2982 76.8464L38.5508 76.6771L38.6381 76.6199C38.8677 76.4689 39.0973 76.3088 39.3269 76.1372L39.4142 76.0731L39.6966 75.8695L39.7953 75.7963L40.1375 75.54L40.1696 75.5149L40.5554 75.2151L40.6403 75.1488L40.948 74.9017L41.0559 74.8125C41.1662 74.724 41.2764 74.6325 41.3866 74.5379C41.4098 74.5201 41.4321 74.501 41.4532 74.4807C41.5864 74.3686 41.7218 74.2519 41.8573 74.1329L41.9331 74.0666C42.0433 73.9705 42.1627 73.8721 42.2591 73.7738L42.374 73.6685L42.4934 73.561L42.4727 73.577C43.6935 72.4498 44.8144 71.2197 45.8228 69.9003C47.0421 68.2988 48.1695 66.171 49.1202 64.1073V64.1279L49.2442 63.8534C49.297 63.739 49.3498 63.6246 49.4003 63.5102C49.4508 63.3958 49.5013 63.2814 49.5496 63.1693C49.5978 63.0572 49.6667 62.9062 49.7218 62.778L49.8274 62.5287C49.8963 62.3708 49.9629 62.2106 50.0295 62.0551L50.0731 61.9498C50.3969 61.1719 50.6862 60.4398 50.9365 59.7832L51.2533 59.9731C51.5679 60.1584 51.8894 60.346 52.2177 60.5267C52.5461 60.7075 52.8767 60.8859 53.2143 61.0461C53.5518 61.2062 53.8871 61.3664 54.2246 61.5037C54.3945 61.57 54.5576 61.6364 54.7252 61.6936L54.9709 61.7805C55.0512 61.808 55.1339 61.8308 55.2143 61.856C55.375 61.9086 55.5334 61.9475 55.6873 61.991L56.1465 62.0985C56.285 62.13 56.4253 62.1521 56.5667 62.1649C56.6967 62.1741 56.8271 62.1741 56.9571 62.1649C57.0731 62.154 57.1882 62.1349 57.3015 62.1077C57.401 62.0829 57.4985 62.0508 57.5931 62.0116C57.7347 61.9523 57.8682 61.8755 57.9904 61.7828C58.0386 61.7493 58.0839 61.7118 58.1258 61.6707V61.3389C58.085 61.2979 58.0421 61.2589 57.9973 61.2223C57.8865 61.132 57.769 61.0502 57.6459 60.9775C57.5682 60.9286 57.4877 60.8843 57.4048 60.8448C57.3146 60.7975 57.221 60.757 57.1247 60.7235C56.9021 60.6407 56.6711 60.5824 56.4358 60.5496L56.0432 60.4718C55.9077 60.4375 55.7677 60.4078 55.6253 60.3689C55.3383 60.2934 55.0352 60.2041 54.7229 60.1012C54.4106 59.9982 54.0845 59.8724 53.7562 59.7557C53.4278 59.639 53.0926 59.4972 52.7573 59.3576L51.747 58.9389L51.3819 58.7925C52.1075 58.0512 52.9502 57.1681 53.8159 56.1911L53.8641 56.1339C53.9789 56.0058 54.0937 55.8731 54.2062 55.7404L54.3555 55.5711L54.6264 55.2508L54.7872 55.0609C56.1282 53.4594 57.4347 51.6657 58.3509 49.8857C59.1593 48.2636 59.6931 46.5196 59.9307 44.7241C59.9307 44.6944 59.9307 44.6646 59.9307 44.6349C59.9628 44.4061 59.9881 44.1773 60.011 43.9645C60.011 43.9325 60.011 43.8982 60.011 43.8662C60.0363 43.6214 60.0546 43.3834 60.0684 43.1569C60.096 42.6993 60.1098 42.2623 60.1098 41.8871V41.8276C60.1098 41.0452 60.0615 40.5121 60.0455 40.3382V40.3176C60.0461 40.3069 60.0461 40.2962 60.0455 40.2856V40.2673C59.9582 40.4823 59.8709 40.6882 59.786 40.8919C59.701 41.0955 59.6482 41.2259 59.5816 41.3861C59.5656 41.425 59.5518 41.4639 59.5357 41.5005C59.4668 41.6675 59.4002 41.8345 59.3336 41.9946C59.2671 42.1548 59.1982 42.3287 59.1339 42.4911C58.5047 44.0583 58.0248 45.3213 57.5679 46.4812C57.7699 45.8887 57.9513 45.303 58.0983 44.7379C58.9157 41.6263 58.9961 38.1029 58.879 35.3826C58.8859 35.3597 58.8836 35.3437 58.8836 35.33Z" fill="#D6E9F6"/>
<path d="M62.0546 43.3286C58.4014 51.7549 44.8194 53.4297 41.4853 68.4109C38.1513 83.3922 54.7321 104.382 71.7721 102.501C88.8122 100.62 89.0854 89.8304 100.67 85.6641C112.254 81.4978 117.645 82.8889 122.254 74.9315C126.518 67.5644 118.369 63.7413 127.836 53.3405C131.788 48.9934 140.532 37.4601 132.989 27.5237C124.036 15.7386 113.156 17.2853 107.921 19.9941C102.686 22.703 99.3517 26.6474 92.6376 22.9684C85.9236 19.2895 76.0201 18.507 69.3657 26.1715C63.476 32.9712 65.9421 34.3645 62.0546 43.3286Z" fill="#D6E9F6"/>
<path d="M138.045 84.1791V88.0251H138.49V84.1791C138.49 83.9023 138.392 83.6758 138.261 83.6758C138.13 83.6758 138.045 83.9023 138.045 84.1791Z" fill="#52B958"/>
<path d="M136.61 86.0759H140.424V85.6183H136.61C136.334 85.6183 136.111 85.719 136.111 85.8471C136.111 85.9752 136.334 86.0759 136.61 86.0759Z" fill="#52B958"/>
<path d="M61.3979 12.1374C61.4094 11.9841 61.4209 11.8331 61.4301 11.6799C61.4301 11.6135 61.4301 11.5517 61.4301 11.4854C61.4301 11.3687 61.4415 11.2566 61.4461 11.1376C61.4507 11.0186 61.4461 10.9454 61.4461 10.8493C61.4461 10.7532 61.4461 10.6938 61.4461 10.6205C61.4461 10.4512 61.4461 10.2842 61.4461 10.1264C61.1591 10.4535 60.8721 10.7899 60.5851 11.1308L60.282 11.5014C60.096 11.7302 59.9123 11.959 59.7286 12.1878C59.6184 12.325 59.5104 12.4669 59.4025 12.6065C59.228 12.8352 59.0535 13.064 58.8813 13.2791C58.7757 13.4187 58.6746 13.5582 58.5713 13.6978C58.406 13.9312 58.2338 14.1699 58.0547 14.4139C58.0133 14.4711 57.9697 14.5283 57.9284 14.5878L57.9605 14.5489C55.3681 18.1912 53.2487 22.1859 52.5208 25.8191C52.5208 25.7986 52.5208 25.7757 52.5208 25.7551C52.5002 25.858 52.4864 25.9587 52.468 26.0594C52.4496 26.16 52.4382 26.2195 52.4244 26.2882C52.3808 26.5444 52.3463 26.7984 52.3188 27.0478C52.2957 27.055 52.2756 27.0694 52.2614 27.0889C51.9055 27.6403 51.5725 28.2009 51.1707 28.7202C50.5117 27.5557 49.8458 26.398 49.1592 25.2517C49.522 24.5883 49.9169 23.9156 50.0409 23.172C50.1535 23.0576 50.2706 22.9432 50.3647 22.8197C50.4037 22.7762 50.4428 22.7282 50.4795 22.6824C50.5668 22.5795 50.6494 22.4742 50.7298 22.3667C50.7711 22.3141 50.8102 22.2614 50.8492 22.2065C50.9273 22.099 51.0007 21.9777 51.0788 21.8771C51.111 21.8267 51.1454 21.7787 51.1753 21.7284C51.274 21.5682 51.3704 21.4058 51.4577 21.241L51.4715 21.2136C51.5541 21.0611 51.6307 20.9009 51.7011 20.7331C51.7286 20.6759 51.7516 20.6187 51.7769 20.5615C51.8274 20.4426 51.8779 20.3327 51.9238 20.2046C51.9491 20.1406 51.972 20.0742 51.995 20.0101L52.0455 19.8797L52.0317 19.9049C53.3498 16.1367 52.553 11.3756 51.4118 7.49755V7.48382C51.2258 6.86151 51.0352 6.26208 50.84 5.69239L50.8056 5.58714C50.716 5.32861 50.6288 5.07694 50.5392 4.83442L50.4772 4.66054L50.2155 3.95815C50.1236 4.13889 50.0341 4.32421 49.9491 4.50953L49.8274 4.77264C49.7815 4.87789 49.7355 4.98313 49.6919 5.09066C49.6483 5.1982 49.6207 5.2737 49.5863 5.3675C49.5519 5.46131 49.5036 5.5757 49.4646 5.68323C49.4256 5.79077 49.4026 5.86398 49.3727 5.95321C49.3429 6.04244 49.2947 6.182 49.2579 6.29411C49.2212 6.40621 49.2051 6.4657 49.1776 6.55264C49.1408 6.6739 49.1041 6.79516 49.0697 6.91871L49.0008 7.17038C48.9663 7.2985 48.9319 7.42662 48.8997 7.55703C48.8791 7.6394 48.8607 7.72176 48.8423 7.80413C48.8102 7.93683 48.7803 8.06953 48.7505 8.20451C48.7321 8.28917 48.716 8.37382 48.6977 8.45847C48.6724 8.58888 48.6449 8.72158 48.6196 8.85428C48.6196 8.88631 48.6081 8.91605 48.6012 8.94808V8.92978C48.3102 10.5655 48.1695 12.2242 48.181 13.8854C48.181 13.8854 48.181 13.9037 48.181 13.9129C48.181 14.0913 48.181 14.2721 48.181 14.4505C48.181 14.4917 48.181 14.5352 48.181 14.5763C48.181 14.7609 48.1879 14.9462 48.2017 15.1323C48.2017 15.1666 48.2017 15.2009 48.2017 15.2353C48.2017 15.4275 48.2224 15.6196 48.2361 15.8095C48.2361 15.837 48.2361 15.8622 48.2361 15.8896C48.2499 16.0887 48.266 16.2854 48.2844 16.4822C48.2844 16.5005 48.2844 16.5188 48.2844 16.5371L48.3464 17.1434C48.3464 17.1434 48.3464 17.1663 48.3464 17.1777C48.3693 17.3836 48.3946 17.5872 48.4221 17.7909C48.421 17.7969 48.421 17.8031 48.4221 17.8092C48.6612 19.6399 49.1335 21.4328 49.8274 23.1446C49.6685 23.8148 49.3993 24.4542 49.0306 25.0367C48.1466 23.5678 47.2235 22.1219 46.2247 20.7148C46.1466 20.5158 46.0685 20.3167 45.995 20.1108L45.8114 19.6166L45.6024 19.0469C45.4049 18.5024 45.2052 17.9419 44.9962 17.363C44.2103 15.0818 43.3098 12.8414 42.2982 10.6503C41.2797 8.51963 40.0127 6.51607 38.5232 4.68113L38.5439 4.69943L38.4061 4.53241L38.3005 4.40658C38.1214 4.19151 37.9423 3.98103 37.7609 3.7774L37.6668 3.67216C37.4892 3.47235 37.3124 3.28016 37.1363 3.0956C37.1206 3.08149 37.106 3.06619 37.0927 3.04985C36.9113 2.86224 36.7322 2.68149 36.5508 2.50761L36.4337 2.39322C36.2615 2.22849 36.0893 2.06833 35.9193 1.91733L35.7977 1.8098C35.6254 1.6588 35.4532 1.51237 35.2856 1.37738L35.2052 1.31561C35.0468 1.18977 34.8907 1.0708 34.7345 0.958695C34.707 0.938103 34.6794 0.915224 34.6519 0.896921C34.4865 0.780237 34.3281 0.66813 34.1697 0.574325L34.064 0.507976C33.9079 0.411883 33.754 0.324943 33.6048 0.247154C33.5772 0.231138 33.5497 0.219699 33.5221 0.205971C33.366 0.125894 33.2121 0.0549691 33.0629 -0.0045166C33.1019 0.162501 33.1433 0.340958 33.1846 0.526279L33.203 0.599492C33.2397 0.75202 33.2787 0.919037 33.3201 1.10055C33.3315 1.14173 33.3407 1.18291 33.3499 1.22638C33.3981 1.41856 33.4463 1.61533 33.4992 1.82124C33.5221 1.90589 33.5451 1.99741 33.568 2.08435C33.591 2.17129 33.6255 2.29712 33.6553 2.40923L33.7035 2.59684V2.5854C34.7184 6.27809 36.7138 11.6501 41.173 16.5897C41.1589 16.5787 41.1459 16.5665 41.134 16.5531C41.2098 16.6378 41.2901 16.7224 41.3636 16.8071L41.5611 17.0221C41.731 17.2052 41.9055 17.3859 42.0846 17.5666L42.2132 17.6971C42.4428 17.9259 42.6725 18.1546 42.9021 18.3834L42.9962 18.4727C43.2029 18.6648 43.4118 18.8547 43.6254 19.0446L43.832 19.2254C44.0157 19.3855 44.204 19.5457 44.3946 19.7058L44.6242 19.898C44.8217 20.0582 45.0238 20.2183 45.2281 20.3785C45.297 20.4334 45.3659 20.4883 45.4371 20.5409C45.5955 20.6622 45.7562 20.7697 45.9193 20.9001C46.6564 21.9389 47.3567 22.9982 48.0318 24.0712C47.2882 23.7532 46.5976 23.3242 45.9836 22.7991C45.8917 22.6687 45.7976 22.5383 45.6965 22.4102C45.6529 22.3507 45.607 22.2935 45.5588 22.234L45.4463 22.0899L45.4577 22.115C42.4199 18.4338 36.3304 15.7409 32.2661 14.2858C31.6139 14.0641 30.9501 13.8777 30.2776 13.7275L30.1536 13.6978L29.6553 13.588L29.4579 13.5445L29.2282 13.4965L29.017 13.453L28.7874 13.4095L28.4085 13.3386L28.2317 13.3066L28.0021 13.2631L27.8345 13.2333L27.5796 13.1899L27.4694 13.1716C27.3568 13.151 27.2397 13.135 27.1456 13.1189L27.0377 13.1006L26.8287 13.0686L26.7484 13.0549L26.5325 13.0229H26.5095L26.3236 12.9954H26.2845L26.195 12.984H26.1743H26.1399C26.2019 13.1212 26.2753 13.2608 26.3534 13.3981C26.3787 13.4415 26.4039 13.485 26.4315 13.5285C26.4912 13.6314 26.5578 13.7344 26.6267 13.8374L26.7093 13.9586C26.8035 14.0913 26.9022 14.224 27.0101 14.359L27.1249 14.4986C27.2007 14.5901 27.2788 14.6816 27.3545 14.7731L27.5107 14.947C27.5911 15.0339 27.676 15.1209 27.761 15.2078C27.8459 15.2948 27.9722 15.4183 28.0824 15.5235L28.2524 15.686C31.6668 18.8547 37.9423 21.8336 42.5783 22.822H42.6013L42.7804 22.8563C42.9296 22.8883 43.0766 22.9158 43.2212 22.941L43.4233 22.9776L43.8504 23.0416L44.0088 23.0645C44.1994 23.0874 44.3877 23.108 44.5714 23.124H44.6081C44.7758 23.1377 44.9411 23.1469 45.0995 23.1514H45.235C45.3659 23.1514 45.4922 23.1514 45.6162 23.1514H45.7425L46.0019 23.1331C46.6773 23.6624 47.422 24.0973 48.2155 24.4258C48.2302 24.4338 48.2469 24.4378 48.2637 24.4373C49.1523 25.8626 49.9996 27.3109 50.8331 28.7706C50.2889 28.7706 49.7447 28.7934 49.2028 28.7591C49.0077 28.647 48.8102 28.5303 48.6058 28.4319L48.3762 28.3107C48.07 28.1582 47.7547 28.0056 47.4302 27.8531H47.4164C44.0399 26.3328 40.4695 25.2827 36.8057 24.7324C34.4498 24.2908 31.5956 24.3709 29.2282 24.3549C28.6918 24.3482 28.1553 24.3688 27.6209 24.4167C27.4257 24.4327 27.2328 24.4533 27.04 24.4761L26.8655 24.499C26.7001 24.5204 26.5371 24.5433 26.3764 24.5677L26.172 24.602C25.9975 24.6317 25.8253 24.6638 25.6577 24.6981L25.5429 24.721C25.3408 24.7644 25.1456 24.8125 24.9527 24.8605L24.7989 24.904C24.655 24.9421 24.5149 24.9833 24.3787 25.0275L24.2202 25.0779C24.0434 25.1351 23.8735 25.1945 23.7174 25.2586C23.9837 25.3936 24.2524 25.5354 24.5233 25.6796L25.4625 26.1715L25.5612 26.2241C25.8482 26.3728 26.1399 26.5215 26.4315 26.6657L26.482 26.6908C26.7851 26.8418 27.0905 26.986 27.4005 27.1233L27.4303 27.1393C28.144 27.4663 28.8817 27.7386 29.637 27.9538C31.9906 28.6081 33.9125 28.9605 36.1834 29.4501C39.7681 30.0442 43.4271 30.0388 47.01 29.4341L46.9158 29.4592C47.0972 29.4295 47.2786 29.3906 47.46 29.3586C47.6414 29.3265 47.7999 29.2991 47.9721 29.2647C48.3693 29.187 48.7666 29.1 49.1661 29.0085C49.7585 29.0428 50.3532 29.0085 50.9479 29.0222C51.3337 29.6994 51.7164 30.3782 52.096 31.0585C51.522 31.1546 50.9479 31.2575 50.3762 31.3353C50.08 31.3056 49.7746 31.2781 49.4577 31.2529L49.0536 31.2232L48.4703 31.1843L48.0111 31.1614L47.4072 31.1385H46.948H46.8148H46.8423C43.3452 31.0836 39.2511 31.5 35.219 33.0787L35.2535 33.0627C35.0881 33.1267 34.9251 33.2022 34.7598 33.2709C34.4842 33.3853 34.2087 33.4997 33.9331 33.6209C33.7311 33.7124 33.5336 33.82 33.3338 33.9184C33.0881 34.0373 32.8425 34.1472 32.5991 34.2821C32.3166 34.4309 32.0388 34.6002 31.7586 34.7626C31.5979 34.8564 31.4372 34.9411 31.2764 35.0394C30.8371 35.3109 30.4024 35.6 29.9722 35.9066C30.0641 35.9584 30.1582 36.0088 30.2546 36.0576L30.3603 36.1056C30.4246 36.1331 30.4889 36.1628 30.5554 36.188L30.6886 36.2383L30.87 36.3047L31.0193 36.3504L31.2007 36.4007L31.3637 36.4419L31.5474 36.4831L31.7173 36.5174L31.9033 36.5495L32.0847 36.5769L32.2707 36.5998C32.3327 36.5998 32.397 36.6158 32.4636 36.6204L32.6404 36.6364L32.8516 36.6524H32.9848C33.2856 36.6684 33.5956 36.6707 33.9033 36.6639H34.0135H34.3051H34.4199L34.7184 36.6456H34.8264C34.932 36.6456 35.0353 36.6295 35.1386 36.6181H35.2305L35.5657 36.5815H35.6254L35.9928 36.5357L36.2959 36.4945C38.0868 36.2174 39.8528 35.7989 41.5772 35.2431C42.5599 34.9296 43.7103 34.5452 44.8768 34.1197L44.948 34.0922L45.6529 33.8291L45.6942 33.8131C45.9239 33.7285 46.1397 33.6438 46.3601 33.5546L46.5622 33.4745L47.072 33.1748L47.2763 33.0901L47.8389 32.8476L47.9514 32.7973C48.181 32.6989 48.3923 32.5982 48.6035 32.4976L48.7183 32.4427L49.2074 32.2024L49.3773 32.1132C49.5197 32.04 49.6552 31.9645 49.7861 31.8844L49.9376 31.7998C50.1075 31.7014 50.2729 31.603 50.4221 31.5046C51.0237 31.4245 51.6184 31.3147 52.2154 31.2186C52.5139 31.7494 52.8132 32.2833 53.1132 32.8202C53.4278 33.3761 53.8182 34.0648 54.2613 34.8518H54.2223C53.5691 34.9723 52.933 35.1713 52.3279 35.4444C52.1121 35.4947 51.8848 35.5382 51.6529 35.5748L51.5358 35.5954C51.3061 35.6297 51.0765 35.6618 50.8308 35.6892C48.8079 35.918 46.4061 35.9409 44.4359 36.6844C42.7413 37.3411 40.2247 38.8008 38.064 40.2902L38.0273 40.3177L37.8573 40.4366C37.7242 40.5281 37.5933 40.6219 37.4647 40.7135C37.3843 40.7707 37.304 40.8279 37.2351 40.8873C37.1662 40.9468 37.0192 41.0452 36.9136 41.1161C36.808 41.1871 36.7598 41.2282 36.684 41.2854C36.521 41.409 36.3602 41.5302 36.2064 41.6515L36.0525 41.7751L35.7265 42.0405L35.5543 42.1846C35.4555 42.267 35.3614 42.347 35.2718 42.4271L35.1295 42.5529C34.9986 42.6719 34.8723 42.7817 34.7575 42.8984C34.9078 42.9595 35.061 43.0129 35.2167 43.0586C35.2856 43.0792 35.3568 43.0929 35.428 43.1112C35.4991 43.1295 35.6094 43.1592 35.7012 43.1775C35.7931 43.1958 35.8688 43.205 35.9515 43.2187C36.0342 43.2325 36.1191 43.2462 36.2041 43.2553L36.4704 43.2782C36.5554 43.2782 36.6404 43.2919 36.7253 43.2942C36.8103 43.2965 36.9067 43.2942 36.9986 43.2942C37.0904 43.2942 37.1754 43.2942 37.2626 43.2942L37.5405 43.2805L37.816 43.2599L38.0938 43.2325L38.3809 43.1936L38.6587 43.1501L38.7919 43.1295H38.7689C41.6484 42.6124 44.8883 40.956 47.6322 39.1828L47.6552 39.1691C47.871 39.0296 48.0823 38.89 48.2912 38.7504L48.4566 38.636C48.615 38.5308 48.7711 38.4233 48.9158 38.3157L49.0995 38.1876L49.545 37.8696L49.6988 37.7575C49.8871 37.6202 50.0731 37.4829 50.2522 37.3479C50.4382 37.2084 50.6173 37.0711 50.7918 36.9361L50.9273 36.8286L51.2901 36.5403L51.4508 36.4122L51.77 36.1468L51.9077 36.0347L52.3165 35.6823H52.3463C52.9571 35.4007 53.6014 35.1977 54.2636 35.0783C54.2794 35.0756 54.2942 35.0692 54.307 35.0597C54.3198 35.0501 54.3301 35.0377 54.3371 35.0234L55.7608 37.5539C55.7608 37.5539 55.7608 37.5539 55.7493 37.5539C55.3497 38.1945 54.9709 38.8831 54.3968 39.3842C54.2499 39.4139 54.1006 39.4505 53.9491 39.4894L53.8205 39.5215C53.6207 39.5764 53.4186 39.6359 53.2097 39.7022L53.0673 39.748C52.8561 39.8166 52.6425 39.8898 52.4267 39.9768L52.3854 39.9905C52.1557 40.0728 51.9261 40.1644 51.6965 40.2582L51.5518 40.3199C51.3222 40.4137 51.0926 40.5167 50.863 40.6219L50.7275 40.686C50.4841 40.7981 50.2407 40.9148 49.995 41.0406C49.7447 41.1665 49.4944 41.2969 49.2442 41.4342C49.2005 41.457 49.1569 41.4799 49.1156 41.5051C48.8722 41.6378 48.6288 41.7773 48.3854 41.9192L48.3372 41.9466C46.6206 42.9505 45.0198 44.1389 43.5634 45.4906L43.5863 45.4655C43.5381 45.5112 43.4945 45.557 43.4463 45.6004L43.258 45.7835L43.0284 46.0123L42.8401 46.2044L42.6265 46.4332L42.4451 46.6323C42.3785 46.7078 42.3097 46.7833 42.2431 46.8611C42.1765 46.9389 42.1306 46.9938 42.0731 47.0601L41.8803 47.2889L41.7241 47.488C41.6621 47.568 41.6001 47.6458 41.5404 47.7168C41.4807 47.7877 41.444 47.8517 41.3935 47.9204L41.2259 48.1492C41.1753 48.2247 41.1271 48.3002 41.0789 48.378L40.9365 48.593C40.8447 48.7395 40.7574 48.8882 40.6748 49.0346C40.8424 48.9957 41.0146 48.9499 41.1914 48.9042L41.3613 48.8607L41.7907 48.7326L41.9813 48.68L42.5393 48.5175L42.6839 48.4741C42.8332 48.4283 42.9824 48.3825 43.1432 48.3322L43.3912 48.2544L43.7769 48.1263L44.0272 48.0416C44.2224 47.973 44.4199 47.9044 44.6173 47.8312L44.847 47.7488L45.2694 47.5886L45.5381 47.4811C45.6782 47.4262 45.8159 47.3713 45.956 47.3118L46.1305 47.2409H46.1122C48.9135 46.0649 51.7516 44.3947 53.3658 42.1617C53.437 42.0633 53.5059 41.9649 53.5725 41.8643L53.6758 41.7018C53.7263 41.6195 53.7768 41.5371 53.8251 41.4525L53.9169 41.29C53.9743 41.1825 54.0294 41.075 54.0822 40.9651C54.0983 40.9285 54.1167 40.8896 54.1351 40.853C54.1925 40.7249 54.2476 40.5945 54.2981 40.4618C54.3165 40.4115 54.3348 40.3611 54.3509 40.3108C54.3876 40.2101 54.4221 40.1072 54.4519 40.0042C54.4657 39.9539 54.4818 39.9058 54.4956 39.8555C54.5231 39.7502 54.5484 39.645 54.5713 39.5398C55.1454 39.0479 55.5334 38.3729 55.9238 37.7323C56.9525 39.5626 58.1121 41.6424 59.2877 43.7724C58.7595 44.1632 58.2074 44.5208 57.6345 44.8431C57.3199 44.8614 57.0076 44.8866 56.693 44.9141L56.4381 44.9392C56.1557 44.969 55.8733 45.0033 55.5885 45.0445L55.4301 45.0628H55.4416C53.939 45.2765 52.4793 45.7235 51.1156 46.3875C48.6232 47.5917 46.3116 49.1364 44.2476 50.977C44.266 50.9587 44.289 50.9381 44.305 50.9198L44.1443 51.0663L43.9652 51.2264C43.6759 51.4872 43.3843 51.7549 43.0904 52.034C43.1937 52.0707 43.3016 52.1027 43.4072 52.137L43.4807 52.1599C43.5932 52.1919 43.7103 52.2239 43.8206 52.2514H43.8389C43.9491 52.2789 44.0685 52.3017 44.1742 52.3223L44.2499 52.3383C44.3724 52.3597 44.4964 52.378 44.6219 52.3933H44.6678C44.7827 52.3933 44.8975 52.4138 45.0238 52.4207H45.1041C45.2373 52.4207 45.3751 52.4207 45.5174 52.4207H45.5817C45.7103 52.4207 45.8435 52.407 45.9767 52.3933H46.0548C46.2063 52.3772 46.3601 52.3544 46.514 52.3246H46.5415C47.0221 52.2334 47.4938 52.1009 47.9514 51.9288C51.0306 50.7849 54.5667 48.8996 56.8147 46.2822V46.2937L56.8354 46.2685C56.9754 46.1038 57.1109 45.9368 57.2395 45.7652C57.2717 45.724 57.3061 45.6851 57.3359 45.6439C57.4806 45.4472 57.6184 45.2481 57.7493 45.0445C58.3172 44.7231 58.8662 44.3694 59.3933 43.9852C62.3784 49.3961 65.4599 55.0884 66.7572 57.8751C66.8491 58.0741 67.1407 57.8888 67.0534 57.6921C66.089 55.6329 64.0431 51.7435 61.8043 47.6069C62.4932 47.3598 63.2096 47.115 63.786 46.6392C63.7963 46.6301 63.8048 46.6192 63.8112 46.6071H63.8686C64.0982 46.5751 64.3279 46.5293 64.5575 46.479L64.6677 46.4561C64.8812 46.4058 65.0856 46.3463 65.2877 46.2822L65.4002 46.2456C65.6045 46.1793 65.802 46.1061 65.9949 46.0168L66.0454 45.9963C66.2291 45.9185 66.4082 45.8361 66.585 45.7492L66.6677 45.708C66.8032 45.6393 66.934 45.5684 67.0649 45.4952L67.0213 45.5135C69.2601 44.2574 70.748 42.3104 71.9512 41.2603C73.8731 39.5901 74.8146 37.6728 75.4162 36.1308C75.5976 35.6732 75.7491 35.2316 75.8754 34.8518C75.7891 34.8449 75.7023 34.8449 75.6159 34.8518H75.5402C75.4621 34.8518 75.3817 34.8724 75.2991 34.8884H75.244C75.1475 34.9113 75.0442 34.9388 74.9386 34.9731L74.8398 35.0074C74.7572 35.0371 74.6722 35.0692 74.5872 35.1058L74.4862 35.147C74.3737 35.195 74.2566 35.2476 74.1441 35.3071L74.0293 35.3666C73.9405 35.4124 73.8509 35.4604 73.7606 35.5107L73.6251 35.5885C73.5034 35.6572 73.3794 35.7327 73.2532 35.8173L73.1475 35.886C73.0465 35.95 72.9432 36.0187 72.8375 36.0896L72.6929 36.188L72.3301 36.4534L72.2727 36.4945C72.128 36.5998 71.9811 36.7096 71.8341 36.8217L71.7354 36.8995C71.5701 37.0276 71.4024 37.158 71.2325 37.2953H71.2463C69.3542 38.85 67.6151 40.5806 66.0523 42.4637L66.0018 42.5232L65.9559 42.5804L65.9237 42.6193L65.6022 43.0243V43.038L65.5678 43.0792C65.5311 43.1295 65.4943 43.1753 65.4576 43.2233C65.4163 43.2759 65.3818 43.3263 65.3428 43.3766L65.1958 43.5733C65.1752 43.6031 65.1499 43.6351 65.1269 43.6649L65.1154 43.6809L65.0213 43.8136L64.9432 43.9234L64.9019 43.9829C64.8766 44.0218 64.8491 44.0607 64.8215 44.0973V44.1133L64.7412 44.2323C64.7364 44.2403 64.731 44.2479 64.7251 44.2551L64.6447 44.3787L64.5575 44.5137L64.4794 44.6395L64.4633 44.667C64.4427 44.7013 64.4197 44.7333 64.4013 44.7676L64.3853 44.7951V44.8065L64.3646 44.8386L64.321 44.9141L64.2498 45.0399L64.2383 45.0605L64.1832 45.1566C64.1788 45.1677 64.1734 45.1784 64.1671 45.1886L64.0638 45.3007C64.0601 45.3103 64.0555 45.3195 64.05 45.3282C64.011 45.4037 63.9719 45.4792 63.9398 45.557C63.9333 45.5667 63.9286 45.5776 63.926 45.589L63.9122 45.6187C63.9122 45.6187 63.9008 45.6416 63.8962 45.6508V45.6668L63.8801 45.7011C63.8704 45.7278 63.8589 45.7538 63.8457 45.7789C63.8428 45.7884 63.839 45.7976 63.8342 45.8064L63.7928 45.907C63.7941 45.9131 63.7941 45.9193 63.7928 45.9253C63.7814 45.9528 63.7722 45.9802 63.7607 46.0054C63.7617 46.0161 63.7617 46.0268 63.7607 46.0374C63.7517 46.0591 63.744 46.0812 63.7377 46.1038C63.7377 46.1152 63.7377 46.1244 63.7377 46.1335C63.7377 46.1427 63.7194 46.1839 63.7125 46.2113C63.7135 46.2166 63.7135 46.222 63.7125 46.2273C63.7125 46.2571 63.6987 46.2868 63.6895 46.3166V46.3394L63.6757 46.4035C63.6757 46.4035 63.6757 46.4218 63.6757 46.431C63.6757 46.4401 63.6757 46.463 63.6757 46.479C63.1086 46.9366 62.4105 47.1654 61.74 47.4125C60.9272 45.9139 60.0914 44.3856 59.2739 42.9053C59.8129 42.4622 60.3265 41.9894 60.8124 41.4891C61.0282 41.4021 61.2395 41.3129 61.4461 41.2214L61.6528 41.1299C61.9398 41.0017 62.22 40.8668 62.4955 40.7295L62.6402 40.6563C62.8904 40.5281 63.1384 40.3954 63.3795 40.2605L63.515 40.185C63.7791 40.0362 64.0408 39.8807 64.298 39.7274L64.4679 39.6221C64.7113 39.4688 64.9547 39.311 65.1958 39.1508C66.0821 38.5582 66.9501 37.9131 67.864 37.2061C68.5 36.7119 68.9868 36.323 69.4162 35.9157L69.345 35.9203L69.43 35.8379L69.5196 35.751C69.6091 35.6618 69.6987 35.5679 69.7859 35.4741L69.8594 35.3918C69.9489 35.2934 70.0362 35.1927 70.1235 35.0875L70.19 35.0028C70.2796 34.8907 70.3714 34.774 70.461 34.6505L70.5138 34.5796C70.6125 34.4423 70.7113 34.3004 70.8169 34.1449C71.6805 32.9154 72.2744 31.5184 72.5597 30.0449C71.6195 30.3862 70.6996 30.7803 69.8043 31.2255C69.6964 31.2781 69.5861 31.3399 69.4713 31.4039L69.3726 31.4634C69.2853 31.5138 69.1958 31.5687 69.1062 31.6282L69.0052 31.6899C68.8881 31.7677 68.7756 31.8501 68.6424 31.937C68.5115 32.0285 68.3783 32.1246 68.2452 32.2253L68.1671 32.2848L67.8387 32.5365L67.7515 32.6074C67.6275 32.7035 67.5035 32.8041 67.3818 32.9048L67.3542 32.9277C67.2211 33.0352 67.0925 33.145 66.9616 33.2549L66.8468 33.3532L66.6034 33.566L66.5184 33.6392C65.9536 34.138 65.4346 34.623 65.0374 35.012C64.2102 35.7718 63.4645 36.6152 62.8124 37.5287L62.794 37.5561C62.569 37.8719 62.357 38.1899 62.158 38.5102L62.1465 38.5262C61.7332 39.1897 61.3612 39.8646 60.9984 40.5556L60.608 41.306C60.1302 41.7989 59.6258 42.2656 59.0971 42.7039C58.2154 41.1024 57.3612 39.5764 56.5851 38.1945C57.1431 37.7643 57.6207 37.2519 58.135 36.7691C58.9938 36.5701 60.9341 35.751 63.0397 34.3508L63.1384 34.2867L63.4645 34.0579L63.6643 33.9184L63.8939 33.7445L64.1442 33.5614C65.6403 32.4596 66.9703 31.1498 68.0936 29.672C68.376 29.2899 68.6424 28.8941 68.8881 28.4846C68.9179 28.4388 68.9409 28.3885 68.9708 28.3427C69.0603 28.1849 69.1522 28.0293 69.2371 27.8668C69.3221 27.7044 69.3933 27.558 69.4667 27.4093C69.4943 27.3498 69.5241 27.2949 69.5517 27.2354C69.9617 26.358 70.2588 25.4324 70.4357 24.4807C70.0592 24.6638 69.6918 24.8582 69.329 25.0596C69.2371 25.1099 69.1476 25.1579 69.058 25.2106C68.7113 25.4073 68.3692 25.6087 68.0385 25.8214C67.9719 25.8626 67.9053 25.9084 67.8387 25.9518C67.554 26.1379 67.2762 26.3271 67.0052 26.5193L66.7756 26.6886C66.4694 26.9128 66.1725 27.1416 65.8847 27.3749L65.6551 27.5671C65.4094 27.7707 65.1683 27.9767 64.9363 28.1849L64.7687 28.3336L64.7412 28.3564H64.7527C63.8789 29.1485 63.0746 30.0134 62.3485 30.9418C60.7688 33.0009 59.4967 34.6482 58.7229 35.6801L58.6471 35.7807L58.5001 35.9775L58.3922 36.1216C58.3631 36.1643 58.3333 36.2055 58.3026 36.2452L58.2062 36.3756L58.135 36.4762C58.1121 36.506 58.0891 36.5403 58.0707 36.5678C57.5449 37.0528 57.0673 37.579 56.5001 38.016C55.4668 36.1857 54.5805 34.6253 53.9743 33.582C54.4565 33.0284 55.0007 32.525 55.4393 31.9347C55.4393 31.9347 55.4393 31.9347 55.4393 31.9187C55.5862 31.8478 55.7355 31.77 55.8848 31.6899L56.0271 31.5733C56.22 31.468 56.4129 31.3582 56.6104 31.2392L56.6494 31.214C56.8423 31.0974 57.0351 30.9738 57.2303 30.8457L57.3911 30.7405C57.5962 30.6032 57.8005 30.4613 58.0041 30.3149L58.0202 30.3012C58.2246 30.1547 58.4289 30.0015 58.6333 29.8436L58.7757 29.7315C59.1982 29.402 59.6207 29.0451 60.0363 28.679L60.1534 28.5761C62.9455 26.0594 65.4507 22.7556 66.2107 19.6395C66.2107 19.6189 66.2107 19.5983 66.2222 19.58C66.2704 19.381 66.3095 19.1819 66.3416 18.9852C66.3531 18.9142 66.3623 18.8456 66.3738 18.7747C66.4036 18.5459 66.4266 18.34 66.4381 18.1249C66.3553 18.1456 66.274 18.1716 66.1947 18.2027C66.1701 18.2106 66.1463 18.2205 66.1235 18.2324L65.9329 18.3148L65.8388 18.3628L65.6505 18.4658L65.5494 18.5253L65.3474 18.6534L65.2463 18.722C65.1706 18.7724 65.0948 18.8273 65.0167 18.8822L64.9295 18.9463C64.8215 19.0263 64.6998 19.111 64.6011 19.2002C64.4955 19.2849 64.3921 19.3718 64.2842 19.4633C62.9685 20.5844 61.4209 22.2866 59.9513 24.1741C59.9335 24.1995 59.9143 24.224 59.8939 24.2474C59.8089 24.3572 59.724 24.4761 59.6413 24.5791L59.5081 24.753L59.2602 25.0847C59.2165 25.1419 59.1752 25.1991 59.1339 25.2586C59.0489 25.3707 58.9662 25.4874 58.8836 25.5995L58.7711 25.7574L58.5139 26.1212L58.4427 26.2218C58.1258 26.6794 57.8204 27.137 57.5242 27.5946C57.5242 27.6083 57.5036 27.6243 57.4921 27.6403L57.2625 28.0133C57.2326 28.0636 57.2005 28.1139 57.1683 28.162L56.9617 28.5029L56.856 28.6813C56.7918 28.7889 56.7275 28.8964 56.6655 29.0039L56.5552 29.1961C56.4955 29.2991 56.4381 29.3997 56.383 29.5027C56.344 29.569 56.3073 29.6377 56.2705 29.704C56.2338 29.7704 56.1649 29.8985 56.1144 29.9969L56.0042 30.2051L55.8641 30.4819C55.8251 30.5574 55.7906 30.6306 55.7539 30.7107L55.6322 30.9647C55.5908 31.0493 55.5541 31.134 55.5151 31.2186C55.476 31.3033 55.4508 31.3605 55.4209 31.4291C55.3727 31.5366 55.3314 31.6396 55.2877 31.7448C55.274 31.7448 55.2602 31.7448 55.2487 31.7654C54.8216 32.3374 54.2981 32.8293 53.8251 33.367C52.9617 31.9004 52.1305 30.4201 51.2993 28.9467C51.7263 28.3999 52.0823 27.8028 52.4474 27.2239L52.863 27.1622C53.079 27.1207 53.2922 27.0657 53.5013 26.9974C53.5679 26.9768 53.6322 26.9517 53.6988 26.9288C53.8388 26.883 53.9743 26.8304 54.1098 26.7709L54.3165 26.6794C54.4565 26.6108 54.5943 26.5376 54.7321 26.4506C54.7826 26.4209 54.8354 26.3934 54.8859 26.3614C58.8124 23.9614 60.9915 17.0176 61.4025 12.2152C61.3933 12.2015 61.3933 12.1695 61.3979 12.1374Z" fill="#52B958"/>
<path d="M123.726 65.567C123.726 65.567 134.77 49.2314 139.131 43.5825C140.261 42.1182 140.766 43.3194 140.722 43.4086C140.332 44.1911 123.96 67.132 123.96 67.132C123.96 67.132 118.943 73.4603 117.478 74.2519C116.936 74.5471 116.842 74.2405 116.686 74.1902C116.53 74.1398 116.732 73.5953 117.535 72.9181C117.535 72.9181 122.286 67.8229 123.726 65.567Z" fill="#ECF5EE"/>
<path d="M129.002 61.6066C128.968 61.6935 128.952 61.7866 128.955 61.8799C128.959 61.9733 128.982 62.0649 129.023 62.1489C129.181 62.3671 129.375 62.558 129.595 62.714C130.568 63.5399 130.725 63.0549 130.929 62.7643C131.009 62.6258 131.034 62.4628 131 62.3067C130.805 62.0643 130.583 61.8454 130.337 61.6547C129.804 61.339 129.262 60.7098 129.002 61.6066ZM138.504 55.3881C138.564 55.1593 138.929 54.7612 138.325 54.4729C138.111 54.3677 137.342 54.3471 137.055 54.2624C136.697 54.1549 136.008 53.679 135.73 53.7385C135.452 53.798 134.906 53.8758 134.922 54.2853C134.947 54.8436 135.198 54.9259 135.381 55.1227C135.565 55.3195 136.102 55.4407 136.458 55.5482C136.814 55.6558 137.331 55.8525 137.576 55.8434C137.958 55.8251 138.46 55.6146 138.504 55.3881ZM115.728 48.9179C115.774 51.5055 119.016 55.2165 120.417 56.7265C121.515 57.9117 124.056 59.2432 124.38 57.9528C124.704 56.6625 121.625 55.1868 119.93 53.2901C117.907 51.0159 117.159 49.2794 117.609 46.2159C117.838 44.7264 121.664 41.656 123.368 41.6057C122.16 45.8658 123.172 48.8424 124.075 50.8283C124.67 52.1415 125.746 53.3816 127.007 52.4802C128.268 51.5787 126.883 50.1007 126.275 48.5266C125.237 45.8498 125.875 43.5916 126.394 42.2097C126.996 40.6082 129.85 39.6473 132.527 40.281C130.474 42.7611 131.434 46.9388 132.157 48.0736C132.881 49.2084 133.861 48.6136 134.171 47.4307C134.401 46.5362 135.641 41.6721 136.084 41.1527C137.73 39.224 141.657 39.8715 143.696 39.2766C143.98 41.7384 145.427 44.5205 144.137 46.0031C143.689 46.5179 139.496 49.6042 138.711 50.1648C137.671 50.9061 137.48 51.9791 138.892 52.1301C140.304 52.2811 144.823 51.4025 146.437 48.6593C148.15 50.6681 149.147 53.83 147.815 54.9831C146.667 55.9852 143.912 56.7128 140.839 56.9187C139.037 57.0423 136.477 57.0354 136.107 58.4676C135.737 59.8999 137.795 59.9296 139.448 60.0875C140.977 60.2339 145.124 59.6985 148.842 56.9507C149.482 58.4127 148.153 62.3708 146.883 63.2974C145.014 64.6473 142.355 65.3451 138.617 64.3476C136.063 63.6612 133.434 61.9178 132.288 62.714C131.142 63.5102 133.813 64.8006 135.544 65.5624C137.069 66.2351 144.107 66.9352 145.253 66.1436C145.386 68.5344 143.315 70.8063 141.48 71.6986C138.663 73.0714 135.758 71.6757 133.925 70.4677C131.942 69.159 129.103 66.5051 128.791 68.1363C128.05 72.0716 135.822 73.4626 137.044 73.9156C134.901 77.9057 128.665 77.7868 125.82 73.5999C124.093 71.0534 125.117 68.2828 123.983 67.132C124.249 66.7819 136.371 49.4601 137.007 48.5999C137.753 47.5794 139.475 44.8385 139.496 44.4816C139.145 44.6463 137.136 47.2134 136.433 48.2612C135.834 49.149 123.267 66.3586 123.028 66.7224C121.42 66.2191 120.332 68.4841 117.156 67.8664C113.769 67.196 108.968 64.4139 111.852 58.0558C112.796 58.9092 115.296 61.1788 116.782 62.3159C117.967 63.2196 119.967 64.105 120.456 63.1281C121.209 61.6249 117.149 60.2225 115.055 59.0739C113.117 58.01 111.765 57.0308 111.482 54.8504C111.306 53.6172 113.313 49.5219 115.728 48.9179ZM122.644 62.9336C122.017 62.8284 121.843 63.1739 121.774 63.5148C121.735 63.7115 121.648 63.9723 121.889 64.1394C122.066 64.256 122.807 64.3842 123.071 64.4299C123.313 64.4741 123.562 64.4694 123.802 64.4162C124.084 64.3453 124.382 64.3887 124.422 64.1874C124.422 64.0606 124.395 63.9352 124.341 63.8205C124.287 63.7057 124.208 63.6043 124.109 63.5239C123.916 63.3569 122.963 62.9908 122.635 62.9336H122.644ZM130.038 55.0495C129.618 54.6102 128.465 53.7431 128.089 53.7362C126.913 53.7088 126.771 54.569 126.816 54.7887C126.862 55.0083 127.866 55.3469 128.105 55.5391C128.295 55.6924 128.435 56.1065 128.518 56.1683C128.895 56.4451 129.59 56.2735 129.82 56.0859C130.093 55.8571 130.451 55.4888 130.029 55.0495H130.038Z" fill="#ECF5EE"/>
<path d="M129.329 93.6031V33.2297C129.327 32.6781 129.106 32.1496 128.714 31.7595C128.323 31.3695 127.793 31.1495 127.239 31.1477H33.095C32.5412 31.1495 32.0105 31.3694 31.6187 31.7594C31.2269 32.1494 31.0056 32.6779 31.0032 33.2297V93.6031H129.329Z" fill="#314780"/>
<path d="M125.34 35.3666H34.7047V91.9215H125.34V35.3666Z" fill="#C2DAF1"/>
<path opacity="0.3" d="M128.722 97.067H31.7242C30.5761 97.067 14.3099 119.576 14.3099 119.576C13.1067 121.124 13.8139 122.932 15.4786 122.932H144.398C146.026 122.932 147.223 121.349 146.3 119.903C145.377 118.457 129.873 97.067 128.722 97.067Z" fill="#2C2728"/>
<path d="M128.722 94.795H31.7242C30.5761 94.795 14.3099 117.304 14.3099 117.304C13.1067 118.852 13.8139 120.66 15.4786 120.66H144.398C146.026 120.66 147.223 119.077 146.3 117.631C145.377 116.185 129.873 94.795 128.722 94.795Z" fill="white"/>
<path d="M128.722 93.2026H31.7242C30.5761 93.2026 14.3099 115.711 14.3099 115.711C13.1067 117.26 13.8139 119.067 15.4786 119.067H144.398C146.026 119.067 147.223 117.484 146.3 116.036C145.377 114.588 129.873 93.2026 128.722 93.2026Z" fill="#EBEEF7"/>
<path d="M112.649 93.2026H47.6782V94.795H112.649V93.2026Z" fill="#314780"/>
<path d="M83.8088 106.811H30.2386L37.6737 96.8633H83.8088V106.811Z" fill="#D2D7E3"/>
<path d="M83.8088 115.675H59.7975L61.7446 109.188H83.8088V115.675Z" fill="#D2D7E3"/>
<path d="M61.5495 109.836H83.8088V109.188H61.7446L61.5495 109.836Z" fill="#A9B6C3"/>
<path d="M77.2968 106.811H130.865L123.432 96.8633H77.2968V106.811Z" fill="#D2D7E3"/>
<path d="M77.2968 115.675H101.308L99.3609 109.188H77.2968V115.675Z" fill="#D2D7E3"/>
<path d="M99.556 109.836H77.2968V109.188H99.3609L99.556 109.836Z" fill="#A9B6C3"/>
<path d="M45.0605 100.652H36.8057V101.711H45.0605V100.652Z" fill="#4D5A8F"/>
<path d="M45.0605 101.201H36.8057V101.75H45.0605V101.201Z" fill="#4D5A8F"/>
<path d="M47.2281 100.652H42.3464V101.711H47.2281V100.652Z" fill="#4D5A8F"/>
<path d="M47.2281 101.201H42.3464V101.75H47.2281V101.201Z" fill="#4D5A8F"/>
<path d="M52.8055 100.652H47.9238V101.711H52.8055V100.652Z" fill="#4D5A8F"/>
<path d="M52.8055 101.201H47.9238V101.75H52.8055V101.201Z" fill="#4D5A8F"/>
<path d="M58.3463 100.652H53.4646V101.711H58.3463V100.652Z" fill="#4D5A8F"/>
<path d="M58.3463 101.201H53.4646V101.75H58.3463V101.201Z" fill="#4D5A8F"/>
<path d="M63.848 100.652H58.9662V101.711H63.848V100.652Z" fill="#4D5A8F"/>
<path d="M63.848 101.201H58.9662V101.75H63.848V101.201Z" fill="#4D5A8F"/>
<path d="M69.3887 100.652H64.507V101.711H69.3887V100.652Z" fill="#4D5A8F"/>
<path d="M69.3887 101.201H64.507V101.75H69.3887V101.201Z" fill="#4D5A8F"/>
<path d="M74.9661 100.652H70.0844V101.711H74.9661V100.652Z" fill="#4D5A8F"/>
<path d="M74.9661 101.201H70.0844V101.75H74.9661V101.201Z" fill="#4D5A8F"/>
<path d="M80.5068 100.652H75.6252V101.711H80.5068V100.652Z" fill="#4D5A8F"/>
<path d="M80.5068 101.201H75.6252V101.75H80.5068V101.201Z" fill="#4D5A8F"/>
<path d="M85.9327 100.634H81.051V101.693H85.9327V100.634Z" fill="#4D5A8F"/>
<path d="M85.9327 101.183H81.051V101.732H85.9327V101.183Z" fill="#4D5A8F"/>
<path d="M91.4735 100.634H86.5917V101.693H91.4735V100.634Z" fill="#4D5A8F"/>
<path d="M91.4735 101.183H86.5917V101.732H91.4735V101.183Z" fill="#4D5A8F"/>
<path d="M97.0532 100.634H92.1715V101.693H97.0532V100.634Z" fill="#4D5A8F"/>
<path d="M97.0532 101.183H92.1715V101.732H97.0532V101.183Z" fill="#4D5A8F"/>
<path d="M102.592 100.634H97.7099V101.693H102.592V100.634Z" fill="#4D5A8F"/>
<path d="M102.592 101.183H97.7099V101.732H102.592V101.183Z" fill="#4D5A8F"/>
<path d="M108.093 100.634H103.212V101.693H108.093V100.634Z" fill="#4D5A8F"/>
<path d="M108.093 101.183H103.212V101.732H108.093V101.183Z" fill="#4D5A8F"/>
<path d="M113.634 100.634H108.752V101.693H113.634V100.634Z" fill="#4D5A8F"/>
<path d="M113.634 101.183H108.752V101.732H113.634V101.183Z" fill="#4D5A8F"/>
<path d="M119.211 100.634H114.33V101.693H119.211V100.634Z" fill="#4D5A8F"/>
<path d="M119.211 101.183H114.33V101.732H119.211V101.183Z" fill="#4D5A8F"/>
<path d="M124.752 100.634H117.59V101.693H124.752V100.634Z" fill="#4D5A8F"/>
<path d="M124.752 101.183H117.59V101.732H124.752V101.183Z" fill="#4D5A8F"/>
<path d="M44.4038 102.471H35.6094V103.53H44.4038V102.471Z" fill="#4D5A8F"/>
<path d="M44.4038 103.02H35.6094V103.569H44.4038V103.02Z" fill="#4D5A8F"/>
<path d="M49.9422 102.471H45.0605V103.53H49.9422V102.471Z" fill="#4D5A8F"/>
<path d="M49.9422 103.02H45.0605V103.569H49.9422V103.02Z" fill="#4D5A8F"/>
<path d="M55.5196 102.471H50.6379V103.53H55.5196V102.471Z" fill="#4D5A8F"/>
<path d="M55.5196 103.02H50.6379V103.569H55.5196V103.02Z" fill="#4D5A8F"/>
<path d="M61.0604 102.471H56.1786V103.53H61.0604V102.471Z" fill="#4D5A8F"/>
<path d="M61.0604 103.02H56.1786V103.569H61.0604V103.02Z" fill="#4D5A8F"/>
<path d="M66.5621 102.471H61.6804V103.53H66.5621V102.471Z" fill="#4D5A8F"/>
<path d="M66.5621 103.02H61.6804V103.569H66.5621V103.02Z" fill="#4D5A8F"/>
<path d="M72.1028 102.471H67.2211V103.53H72.1028V102.471Z" fill="#4D5A8F"/>
<path d="M72.1028 103.02H67.2211V103.569H72.1028V103.02Z" fill="#4D5A8F"/>
<path d="M77.6802 102.471H72.7985V103.53H77.6802V102.471Z" fill="#4D5A8F"/>
<path d="M77.6802 103.02H72.7985V103.569H77.6802V103.02Z" fill="#4D5A8F"/>
<path d="M83.2209 102.471H78.3392V103.53H83.2209V102.471Z" fill="#4D5A8F"/>
<path d="M83.2209 103.02H78.3392V103.569H83.2209V103.02Z" fill="#4D5A8F"/>
<path d="M88.6468 102.453H83.7651V103.512H88.6468V102.453Z" fill="#4D5A8F"/>
<path d="M88.6468 103.002H83.7651V103.551H88.6468V103.002Z" fill="#4D5A8F"/>
<path d="M94.1876 102.453H89.3058V103.512H94.1876V102.453Z" fill="#4D5A8F"/>
<path d="M94.1876 103.002H89.3058V103.551H94.1876V103.002Z" fill="#4D5A8F"/>
<path d="M99.765 102.453H94.8833V103.512H99.765V102.453Z" fill="#4D5A8F"/>
<path d="M99.765 103.002H94.8833V103.551H99.765V103.002Z" fill="#4D5A8F"/>
<path d="M105.306 102.453H100.424V103.512H105.306V102.453Z" fill="#4D5A8F"/>
<path d="M105.306 103.002H100.424V103.551H105.306V103.002Z" fill="#4D5A8F"/>
<path d="M110.807 102.453H105.926V103.512H110.807V102.453Z" fill="#4D5A8F"/>
<path d="M110.807 103.002H105.926V103.551H110.807V103.002Z" fill="#4D5A8F"/>
<path d="M116.348 102.453H111.466V103.512H116.348V102.453Z" fill="#4D5A8F"/>
<path d="M116.348 103.002H111.466V103.551H116.348V103.002Z" fill="#4D5A8F"/>
<path d="M121.926 102.453H117.044V103.512H121.926V102.453Z" fill="#4D5A8F"/>
<path d="M121.926 103.002H117.044V103.551H121.926V103.002Z" fill="#4D5A8F"/>
<path d="M126.05 102.453H120.918V103.512H126.05V102.453Z" fill="#4D5A8F"/>
<path d="M126.05 103.002H120.918V103.551H126.05V103.002Z" fill="#4D5A8F"/>
<path d="M45.3338 104.418H34.7529V105.477H45.3338V104.418Z" fill="#4D5A8F"/>
<path d="M45.3338 104.965H34.7529V105.514H45.3338V104.965Z" fill="#4D5A8F"/>
<path d="M47.5013 104.418H42.6196V105.477H47.5013V104.418Z" fill="#4D5A8F"/>
<path d="M47.5013 104.965H42.6196V105.514H47.5013V104.965Z" fill="#4D5A8F"/>
<path d="M53.0811 104.418H48.1994V105.477H53.0811V104.418Z" fill="#4D5A8F"/>
<path d="M53.0811 104.965H48.1994V105.514H53.0811V104.965Z" fill="#4D5A8F"/>
<path d="M58.6195 104.418H53.7378V105.477H58.6195V104.418Z" fill="#4D5A8F"/>
<path d="M58.6195 104.965H53.7378V105.514H58.6195V104.965Z" fill="#4D5A8F"/>
<path d="M64.1212 104.418H59.2395V105.477H64.1212V104.418Z" fill="#4D5A8F"/>
<path d="M64.1212 104.965H59.2395V105.514H64.1212V104.965Z" fill="#4D5A8F"/>
<path d="M69.6619 104.418H64.7802V105.477H69.6619V104.418Z" fill="#4D5A8F"/>
<path d="M69.6619 104.965H64.7802V105.514H69.6619V104.965Z" fill="#4D5A8F"/>
<path d="M75.2394 104.418H70.3577V105.477H75.2394V104.418Z" fill="#4D5A8F"/>
<path d="M75.2394 104.965H70.3577V105.514H75.2394V104.965Z" fill="#4D5A8F"/>
<path d="M80.7801 104.418H75.8984V105.477H80.7801V104.418Z" fill="#4D5A8F"/>
<path d="M80.7801 104.965H75.8984V105.514H80.7801V104.965Z" fill="#4D5A8F"/>
<path d="M86.2083 104.4H81.3266V105.459H86.2083V104.4Z" fill="#4D5A8F"/>
<path d="M86.2083 104.947H81.3266V105.496H86.2083V104.947Z" fill="#4D5A8F"/>
<path d="M91.749 104.4H86.8673V105.459H91.749V104.4Z" fill="#4D5A8F"/>
<path d="M91.749 104.947H86.8673V105.496H91.749V104.947Z" fill="#4D5A8F"/>
<path d="M97.3265 104.4H92.4448V105.459H97.3265V104.4Z" fill="#4D5A8F"/>
<path d="M97.3265 104.947H92.4448V105.496H97.3265V104.947Z" fill="#4D5A8F"/>
<path d="M102.867 104.4H97.9855V105.459H102.867V104.4Z" fill="#4D5A8F"/>
<path d="M102.867 104.947H97.9855V105.496H102.867V104.947Z" fill="#4D5A8F"/>
<path d="M108.369 104.4H103.487V105.459H108.369V104.4Z" fill="#4D5A8F"/>
<path d="M108.369 104.947H103.487V105.496H108.369V104.947Z" fill="#4D5A8F"/>
<path d="M113.907 104.4H109.026V105.459H113.907V104.4Z" fill="#4D5A8F"/>
<path d="M113.907 104.947H109.026V105.496H113.907V104.947Z" fill="#4D5A8F"/>
<path d="M119.487 104.4H114.605V105.459H119.487V104.4Z" fill="#4D5A8F"/>
<path d="M119.487 104.947H114.605V105.496H119.487V104.947Z" fill="#4D5A8F"/>
<path d="M126.878 104.4H117.864V105.459H126.878V104.4Z" fill="#4D5A8F"/>
<path d="M126.878 104.947H117.864V105.496H126.878V104.947Z" fill="#4D5A8F"/>
<path d="M44.2591 98.5039H37.7333V99.5632H44.2591V98.5039Z" fill="#4D5A8F"/>
<path d="M44.2591 99.0529H37.7333V99.602H44.2591V99.0529Z" fill="#4D5A8F"/>
<path d="M49.7976 98.5039H44.9158V99.5632H49.7976V98.5039Z" fill="#4D5A8F"/>
<path d="M49.7976 99.0529H44.9158V99.602H49.7976V99.0529Z" fill="#4D5A8F"/>
<path d="M55.375 98.5039H50.4933V99.5632H55.375V98.5039Z" fill="#4D5A8F"/>
<path d="M55.375 99.0529H50.4933V99.602H55.375V99.0529Z" fill="#4D5A8F"/>
<path d="M60.9157 98.5039H56.034V99.5632H60.9157V98.5039Z" fill="#4D5A8F"/>
<path d="M60.9157 99.0529H56.034V99.602H60.9157V99.0529Z" fill="#4D5A8F"/>
<path d="M66.4174 98.5039H61.5357V99.5632H66.4174V98.5039Z" fill="#4D5A8F"/>
<path d="M66.4174 99.0529H61.5357V99.602H66.4174V99.0529Z" fill="#4D5A8F"/>
<path d="M71.9581 98.5039H67.0764V99.5632H71.9581V98.5039Z" fill="#4D5A8F"/>
<path d="M71.9581 99.0529H67.0764V99.602H71.9581V99.0529Z" fill="#4D5A8F"/>
<path d="M77.5356 98.5039H72.6539V99.5632H77.5356V98.5039Z" fill="#4D5A8F"/>
<path d="M77.5356 99.0529H72.6539V99.602H77.5356V99.0529Z" fill="#4D5A8F"/>
<path d="M83.0763 98.5039H78.1946V99.5632H83.0763V98.5039Z" fill="#4D5A8F"/>
<path d="M83.0763 99.0529H78.1946V99.602H83.0763V99.0529Z" fill="#4D5A8F"/>
<path d="M88.5022 98.4855H83.6205V99.5448H88.5022V98.4855Z" fill="#4D5A8F"/>
<path d="M88.5022 99.0347H83.6205V99.5838H88.5022V99.0347Z" fill="#4D5A8F"/>
<path d="M94.0429 98.4855H89.1612V99.5448H94.0429V98.4855Z" fill="#4D5A8F"/>
<path d="M94.0429 99.0347H89.1612V99.5838H94.0429V99.0347Z" fill="#4D5A8F"/>
<path d="M99.6204 98.4855H94.7386V99.5448H99.6204V98.4855Z" fill="#4D5A8F"/>
<path d="M99.6204 99.0347H94.7386V99.5838H99.6204V99.0347Z" fill="#4D5A8F"/>
<path d="M105.161 98.4855H100.279V99.5448H105.161V98.4855Z" fill="#4D5A8F"/>
<path d="M105.161 99.0347H100.279V99.5838H105.161V99.0347Z" fill="#4D5A8F"/>
<path d="M110.663 98.4855H105.781V99.5448H110.663V98.4855Z" fill="#4D5A8F"/>
<path d="M110.663 99.0347H105.781V99.5838H110.663V99.0347Z" fill="#4D5A8F"/>
<path d="M116.203 98.4855H111.322V99.5448H116.203V98.4855Z" fill="#4D5A8F"/>
<path d="M116.203 99.0347H111.322V99.5838H116.203V99.0347Z" fill="#4D5A8F"/>
<path d="M121.781 98.4855H116.899V99.5448H121.781V98.4855Z" fill="#4D5A8F"/>
<path d="M121.781 99.0347H116.899V99.5838H121.781V99.0347Z" fill="#4D5A8F"/>
<path d="M123.485 98.4855H120.773V99.5448H123.485V98.4855Z" fill="#4D5A8F"/>
<path d="M123.485 99.0347H120.773V99.5838H123.485V99.0347Z" fill="#4D5A8F"/>
<path d="M80.1647 84.806C91.8279 84.806 101.283 75.2746 101.283 63.517C101.283 51.7594 91.8279 42.228 80.1647 42.228C68.5015 42.228 59.0466 51.7594 59.0466 63.517C59.0466 75.2746 68.5015 84.806 80.1647 84.806Z" fill="#52B958"/>
<path d="M80.1647 75.4188C86.6836 75.4188 91.9694 70.0903 91.9694 63.5217C91.9694 56.9531 86.6882 51.6245 80.1647 51.6245C73.6412 51.6245 68.36 56.9531 68.36 63.5217C68.36 70.0903 73.6458 75.4188 80.1647 75.4188ZM80.1647 54.6148C81.9365 54.5944 83.6744 55.0992 85.1575 56.0652C86.6407 57.0311 87.8022 58.4146 88.4945 60.0398C89.1868 61.665 89.3786 63.4585 89.0455 65.1926C88.7124 66.9266 87.8695 68.5229 86.6239 69.7785C85.3783 71.0342 83.7862 71.8925 82.0498 72.2445C80.3135 72.5965 78.5114 72.4263 76.8724 71.7555C75.2333 71.0847 73.8315 69.9435 72.8448 68.477C71.8582 67.0105 71.3313 65.2849 71.3312 63.5194C71.3243 62.3567 71.5473 61.2041 71.9875 60.1273C72.4276 59.0506 73.0764 58.0707 73.8967 57.2438C74.717 56.4169 75.6928 55.7592 76.7682 55.3081C77.8437 54.857 78.9978 54.6214 80.1647 54.6148Z" fill="white"/>
<path d="M80.1647 81.3925C89.958 81.3925 97.8959 73.3848 97.8959 63.5194C97.8959 53.6539 89.9557 45.6439 80.1647 45.6439C70.3737 45.6439 62.4335 53.6516 62.4335 63.5194C62.4335 73.3871 70.3714 81.3925 80.1647 81.3925ZM80.1647 48.6411C88.3139 48.6411 94.9223 55.3012 94.9223 63.5125C94.9223 71.7238 88.3162 78.3839 80.1647 78.3839C72.0132 78.3839 65.4071 71.7238 65.4071 63.5125C65.4071 55.3012 72.0155 48.6411 80.1647 48.6411Z" fill="white"/>
<path d="M80.1647 69.3489C81.3253 69.3625 82.4637 69.032 83.4353 68.3995C84.4069 67.7669 85.1678 66.8607 85.6213 65.7962C86.0748 64.7317 86.2004 63.5569 85.9822 62.4211C85.7641 61.2853 85.2119 60.2397 84.3959 59.4173C83.5799 58.5949 82.537 58.0328 81.3996 57.8025C80.2623 57.5721 79.0818 57.6838 78.0084 58.1235C76.9349 58.5631 76.0168 59.3109 75.3709 60.2716C74.7249 61.2324 74.3802 62.3629 74.3806 63.5193C74.3761 64.2806 74.5221 65.0352 74.8103 65.7402C75.0986 66.4452 75.5234 67.0867 76.0606 67.6281C76.5977 68.1694 77.2366 68.6001 77.9408 68.8953C78.645 69.1906 79.4007 69.3447 80.1647 69.3489ZM80.1647 59.9296C80.8791 59.921 81.5799 60.1242 82.178 60.5133C82.7762 60.9025 83.2448 61.4601 83.5241 62.1152C83.8035 62.7703 83.8811 63.4934 83.7471 64.1926C83.613 64.8918 83.2734 65.5355 82.7713 66.0419C82.2693 66.5483 81.6274 66.8945 80.9274 67.0366C80.2274 67.1786 79.5008 67.1101 78.8399 66.8398C78.179 66.5694 77.6138 66.1093 77.2159 65.5181C76.8181 64.9269 76.6057 64.2311 76.6056 63.5193C76.6026 63.0507 76.6923 62.5861 76.8695 62.1521C77.0468 61.718 77.3081 61.323 77.6387 60.9896C77.9692 60.6563 78.3624 60.3911 78.7958 60.2092C79.2293 60.0273 79.6944 59.9323 80.1647 59.9296Z" fill="white"/>
<path opacity="0.6" d="M30.6473 129.766C36.4237 129.766 41.1065 129.116 41.1065 128.315C41.1065 127.514 36.4237 126.865 30.6473 126.865C24.8709 126.865 20.1881 127.514 20.1881 128.315C20.1881 129.116 24.8709 129.766 30.6473 129.766Z" fill="#C1DBE2"/>
<path d="M29.4213 79.077C31.0082 75.4698 31.3447 72.1306 30.1727 71.6187C29.0008 71.1069 26.7643 73.6162 25.1774 77.2234C23.5905 80.8306 23.254 84.1698 24.4259 84.6817C25.5979 85.1935 27.8344 82.6842 29.4213 79.077Z" fill="#52B958"/>
<path d="M34.2156 122.394L31.7931 122.538L31.0285 113.508L30.3442 110.305L30.0067 107.125L28.9642 110.337L26.4751 122.543H24.4292L24.9504 114.366L25.6668 108.408L26.2478 97.4468L30.6381 97.0533L33.1731 96.6758L34.2156 122.394Z" fill="url(#paint0_linear)"/>
<path d="M24.3925 127.37L28.2501 127.798L25.7403 125.78V122.664H24.7001L24.6381 125.231L24.3925 127.37Z" fill="#D7AC8E"/>
<path d="M25.4349 127.247C25.4349 127.247 27.0055 127.391 27.6393 127.476C28.3844 127.573 29.0912 127.862 29.6898 128.315H27.5773L25.4349 127.629V128.123H24.4246V126.819L25.4349 127.247Z" fill="url(#paint1_linear)"/>
<path d="M31.9975 127.238L35.8551 127.666L33.343 125.65V122.534H32.3029L32.2409 125.101L31.9975 127.238Z" fill="#D7AC8E"/>
<path d="M33.0376 127.116C33.0376 127.116 34.6082 127.261 35.242 127.345C35.9881 127.442 36.6959 127.731 37.2948 128.185H35.1823L33.0376 127.499V127.995H32.0273V126.682L33.0376 127.116Z" fill="url(#paint2_linear)"/>
<path d="M25.7174 85.4856L27.6737 79.5073L30.4912 80.8183C31.25 82.1705 31.8348 83.6125 32.2317 85.1104C32.6565 86.8584 32.4613 88.643 32.4154 90.1095C32.2937 93.4499 33.5635 97.2021 33.5635 97.2021C33.5635 97.2021 31.6324 97.0831 29.8367 97.1632C28.5938 97.2391 27.359 97.4151 26.1445 97.6894C26.1445 97.6894 27.699 94.0493 27.7059 91.5944C27.7128 89.1394 25.7174 85.4856 25.7174 85.4856Z" fill="#C2DAF1"/>
<path d="M18.9574 88.4324L27.4969 79.7749C27.4969 79.7749 28.4154 80.6901 28.2088 82.406C28.0021 84.1219 25.7174 85.4855 25.7174 85.4855L22.1675 89.5649L23.9631 91.2854L22.9023 93.6465C22.9023 93.6465 19.8047 91.187 19.1273 90.6013C18.4499 90.0156 18.9574 88.4324 18.9574 88.4324Z" fill="#C2DAF1"/>
<path d="M28.8632 76.2973L31.0974 71.932L31.7242 73.0027C31.8735 73.2155 31.9954 73.4461 32.087 73.6891C32.1582 73.9294 32.9917 74.6729 32.7093 74.7599C32.6576 74.7759 32.6113 74.8057 32.5753 74.846C32.5393 74.8863 32.515 74.9356 32.5049 74.9887C32.4998 75.1989 32.5175 75.4091 32.5577 75.6155C32.5577 76.5101 32.1283 76.8991 32.1283 76.8991C32.1283 76.8991 30.6197 76.8167 30.0067 77.9973C29.3936 79.1778 30.0067 80.514 30.0067 80.514C30.0067 80.514 26.2868 81.2141 27.5383 79.7818C28.6175 78.5624 28.8632 76.2973 28.8632 76.2973Z" fill="#F8C599"/>
<path d="M30.8417 74.4614C31.3901 73.2136 31.2009 71.9256 30.4191 71.5844C29.6374 71.2433 28.559 71.9783 28.0106 73.226C27.4622 74.4737 27.6514 75.7618 28.4332 76.1029C29.215 76.444 30.2933 75.7091 30.8417 74.4614Z" fill="#52B958"/>
<path d="M26.133 94.0996L23.2673 93.0654L23.6967 91.91L26.4567 93.0105L26.133 94.0996Z" fill="#F8C599"/>
<path d="M27.6852 94.4405C28.7695 94.4405 29.6484 94.0779 29.6484 93.6306C29.6484 93.1833 28.7695 92.8207 27.6852 92.8207C26.6009 92.8207 25.722 93.1833 25.722 93.6306C25.722 94.0779 26.6009 94.4405 27.6852 94.4405Z" fill="#F8C599"/>
<path d="M30.1904 71.4973C30.3461 71.5427 30.4994 71.5962 30.6496 71.6575C29.294 72.6374 28.3121 74.0465 27.8643 75.6545C27.7954 75.8833 27.7403 76.1121 27.6944 76.3546C26.4177 75.6247 25.7128 74.3344 26.0572 73.1515C26.4797 71.6987 28.3327 70.9574 30.1904 71.4973Z" fill="#52B958"/>
<path opacity="0.6" d="M60.9088 138.002C68.6446 138.002 74.9156 137.519 74.9156 136.922C74.9156 136.326 68.6446 135.842 60.9088 135.842C53.1731 135.842 46.902 136.326 46.902 136.922C46.902 137.519 53.1731 138.002 60.9088 138.002Z" fill="#C1DBE2"/>
<path d="M59.3841 89.3796C59.3841 89.3796 58.0271 87.7415 58.4243 85.8608C58.6333 84.8702 61.2395 84.1357 62.1304 84.1357C63.0213 84.1357 63.4254 85.2797 63.4254 85.2797L64.3692 87.9314C64.3692 87.9314 64.8284 89.9059 64.2865 90.1598C63.9651 90.3108 62.3968 90.4367 62.3968 90.4367L62.1671 92.9396L59.4714 92.3471L59.3841 89.3796Z" fill="#F5B7A0"/>
<path d="M60.1075 88.7047L61.2441 90.5762L62.2843 90.7798L62.3968 90.4435L61.3061 90.336L60.2292 88.7047H60.1075Z" fill="#DFAB8A"/>
<path d="M55.6735 136.215C54.7895 136.371 53.4416 136.559 53.4416 136.559L53.3635 135.824L53.5013 134.987L56.5736 134.907L58.0937 135.136L58.4404 135.412C58.4404 135.412 56.3555 136.096 55.6735 136.215Z" fill="#1D1132"/>
<path d="M66.3026 134.598L63.2624 135.433L62.4106 124.595L62.7527 121.561L61.3864 111.945L58.654 120.98L56.4359 135.433H53.4623L54.2637 125.707L55.0696 119.658L55.9238 108.873L62.3761 108.477L66.0982 108.097L66.3026 134.598Z" fill="url(#paint3_linear)"/>
<path d="M71.7744 107.363C71.7744 107.363 69.8295 99.2177 69.4185 98.6686C69.159 98.3162 67.6619 95.3557 66.2222 93.8777L65.267 92.7978L64.8399 92.3928C64.8072 92.3723 64.7703 92.359 64.732 92.3539V92.3905L62.9501 92.2693H61.3818L58.5139 92.2235L55.2142 93.4727L51.8939 101.446L51.1155 109.04L53.5334 108.857L53.4691 101.709L56.0661 98.9088L56.3738 102.318L55.7975 109.227L66.7251 108.541L65.4966 97.607L65.4713 98.1538L67.7997 101.503L69.2256 107.591L71.7744 107.363Z" fill="#52B958"/>
<path opacity="0.6" d="M63.0259 121.044L62.7389 124.433L63.3658 135.142L62.3968 124.27L62.7136 121.079L61.3864 111.945L61.763 110.687L63.0259 121.044Z" fill="#1D1132"/>
<path d="M69.1567 136.922H64.856L64.5299 136.533L64.2544 136.922H63.5035V135.142L65.6436 134.774L66.7067 136.003L69.1567 136.691V136.922Z" fill="#1D1132"/>
<path d="M54.2636 111.11L53.7975 111.346L53.1683 110.692L53.026 111.751L53.8641 113.41L53.3199 113.428L52.2751 112.245L51.522 111.076L51.4852 110.051L51.6506 109.188L52.902 108.966L54.2636 111.11Z" fill="#F5B7A0"/>
<path opacity="0.6" d="M55.8893 109.323L61.1132 109.131L65.9972 108.55L55.8205 108.969L55.8893 109.323Z" fill="#1D1132"/>
<path d="M69.019 109.907L69.5264 110.062L70.0064 109.316L70.3669 110.335L69.8915 112.101L70.4266 112.032L71.2073 110.696L71.7032 109.424L71.5264 108.413L71.182 107.591L69.9076 107.578L69.019 109.907Z" fill="#F5B7A0"/>
<path d="M63.8617 84.1677C63.6735 83.852 62.9203 83.6369 62.4105 83.5797C62.4105 83.5797 62.0776 81.9622 60.7825 82.7012C59.4875 83.4402 58.3509 83.9984 57.995 85.2934C57.8113 85.9546 57.9146 88.1212 58.3348 89.629C58.755 91.1367 61.5127 90.5739 61.9238 90.1117C62.0868 89.9287 62.174 89.3773 62.2751 88.7069C62.1035 88.5526 61.9495 88.38 61.8158 88.1922C61.3956 87.6087 61.5058 87.3205 61.7102 87.1512C61.9146 86.9819 62.112 86.9887 62.484 87.4737C62.5322 87.245 62.5874 87.0047 62.6516 86.7874C62.7779 86.3481 62.794 85.7876 63.0696 85.5405C63.6505 85.0074 64.0638 84.5246 63.8617 84.1677Z" fill="#314780"/>
<path d="M55.2189 93.4635L54.3188 93.8822C54.3188 93.8822 51.9238 98.7829 51.4899 101.355C51.0559 103.926 51.1087 109.033 51.1087 109.033L53.5266 108.85C53.5266 108.85 53.7034 104.386 54.3188 102.215C54.9341 100.044 56.0593 98.9042 56.0593 98.9042L56.2453 100.963C56.2453 100.824 56.2453 100.686 56.2453 100.547C56.2567 97.8815 56.0432 95.422 55.2189 93.4635Z" fill="#29992C"/>
<path d="M117.092 64.9196H116.681V64.144H116.011V63.707H116.681V62.9314H117.092V63.707H117.76V64.144H117.092V64.9196Z" fill="#FCFCFD"/>
<path d="M113.473 92.9579H112.823V91.7454H111.767V91.059H112.823V89.835H113.473V91.059H114.532V91.7454H113.473V92.9579Z" fill="#FCFCFD"/>
<path opacity="0.6" d="M118.741 116.576C125.992 116.576 131.87 116.099 131.87 115.51C131.87 114.921 125.992 114.444 118.741 114.444C111.489 114.444 105.611 114.921 105.611 115.51C105.611 116.099 111.489 116.576 118.741 116.576Z" fill="#C1DBE2"/>
<path d="M118.254 68.1799C118.254 68.1799 119.446 66.6744 119.097 64.9448C118.913 64.0296 116.628 63.3593 115.848 63.3593C115.067 63.3593 114.957 64.4163 114.957 64.4163C114.957 64.4163 114.245 66.1574 114.13 66.4754L114.339 67.1046C114.339 67.1046 113.48 68.6604 113.958 68.896C114.24 69.0356 115.613 69.15 115.613 69.15L115.811 71.4539L118.178 70.7195L118.254 68.1799Z" fill="#F5BAA0"/>
<path d="M116.729 65.0683C116.78 64.5238 115.811 64.2698 115.234 64.0959C114.867 63.9861 115.221 63.3661 115.682 63.1579C116.536 62.7735 117.772 63.6155 117.772 63.6155C117.772 63.6155 119.03 64.208 119.23 65.0363C119.43 65.8645 118.732 68.0609 118.732 68.0609C118.732 68.0609 119.191 67.8321 118.35 67.6239C117.51 67.4157 118.534 66.4662 118.079 66.4204C117.625 66.3747 117.34 67.2029 117.34 67.2029L116.906 66.9741C116.906 66.9741 116.679 65.6151 116.729 65.0683Z" fill="#314780"/>
<path d="M117.611 67.5688L116.612 69.2894L115.701 69.477L115.602 69.1658L116.559 69.0674L117.503 67.5688H117.611Z" fill="#DFAC8A"/>
<path d="M111.751 113.146L114.601 113.972L115.4 103.26L115.078 100.263L116.36 90.7615L118.92 99.6912L124.681 113.977H127.496L124.865 104.295L122.279 98.3825L121.48 86.1697L115.432 85.7807L111.942 85.4032L111.751 113.146Z" fill="url(#paint4_linear)"/>
<path d="M106.621 86.2338C106.621 86.2338 108.458 78.1826 108.83 77.6335C109.074 77.288 110.477 73.5839 111.827 72.1242L113.048 70.6668H113.186L113.223 70.6279V70.6645L114.892 70.5432L115.724 74.6615L119.051 70.1017C119.051 70.1017 121.634 71.2342 122.989 72.9181C124.343 74.602 125.799 78.7042 125.896 80.3058C125.992 81.9073 125.992 87.8971 125.992 87.8971L123.728 87.7163L122.984 81.1523L121.352 77.8783L121.064 81.2484L121.606 86.5106L111.365 85.8517L112.513 76.6039L112.536 77.1439L110.353 80.4522L109.019 86.4694L106.621 86.2338Z" fill="#314780"/>
<path opacity="0.6" d="M114.823 99.753L115.092 103.102L114.504 113.684L115.414 102.94L115.115 99.785L116.36 90.7615L116.006 89.5168L114.823 99.753Z" fill="#1D1132"/>
<path d="M120.488 100.295L121.448 101.316" stroke="#482A71" stroke-miterlimit="10"/>
<path d="M107.271 115.444H112.775L113.191 115.059L113.542 115.444H114.504V113.684L111.767 113.32L110.406 114.535L107.271 115.215V115.444Z" fill="#1D1132"/>
<path d="M124.807 115.665L127.551 115.53L127.625 114.805L127.239 113.977L124.807 114.071V115.665Z" fill="#1D1132"/>
<path d="M115.852 73.8973L118.952 70.1932L118.543 70.1383L116.36 71.3097L115.432 70.3419L114.888 70.5341L115.852 73.8973Z" fill="white"/>
<path d="M123.035 89.9355L123.473 90.1689L124.061 89.5237L124.197 90.5693L123.411 92.2097L123.919 92.228L124.899 91.0589L125.606 89.9035L125.641 88.89L125.485 88.0389L124.311 87.8192L123.035 89.9355Z" fill="#F5BAA0"/>
<path opacity="0.6" d="M121.512 86.6157L116.614 86.4258L112.038 85.8516L121.577 86.2657L121.512 86.6157Z" fill="#1D1132"/>
<path opacity="0.6" d="M123.464 85.044L122.984 81.1523L121.352 77.8783L121.448 77.4321L123.271 81.1408L123.464 85.044Z" fill="#1D1132"/>
<path d="M121.487 75.1641L121.295 77.8732L121.4 77.8806L121.592 75.1716L121.487 75.1641Z" fill="url(#paint5_linear)"/>
<path d="M112.701 73.6244L112.466 76.6008L112.571 76.6091L112.807 73.6326L112.701 73.6244Z" fill="url(#paint6_linear)"/>
<path d="M120.89 100.073L122.389 101.602" stroke="#482A71" stroke-miterlimit="10"/>
<path d="M112.327 99.785L113.287 100.805" stroke="#482A71" stroke-miterlimit="10"/>
<path opacity="0.6" d="M112.615 76.5238L112.598 76.9791L110.357 80.4522L112.615 76.5238Z" fill="#1D1132"/>
<path d="M109.207 88.7459L108.729 88.9015L108.279 88.1648L107.942 89.1692L108.387 90.9171L107.884 90.8462L107.154 89.5284L106.688 88.2723L106.856 87.2702L107.177 86.4603L108.371 86.4465L109.207 88.7459Z" fill="#F5BAA0"/>
<path d="M103.859 90.1437V95.9756H111.595V90.1437H109.914V88.4918H105.528V90.1437H103.859ZM109.577 90.1437H105.884V88.7481H109.577V90.1437Z" fill="#52B958"/>
<path d="M124.3 20.0924C126.686 18.3261 126.107 29.2669 122.952 31.6006L114.784 37.6384C114.784 37.6384 111.884 29.2715 114.75 27.1529L124.3 20.0924Z" fill="#29992C"/>
<path d="M134.773 34.154C137.159 32.3901 126.481 29.7704 123.329 32.0949L115.159 38.1327C115.159 38.1327 122.357 43.324 125.223 41.2054L134.773 34.154Z" fill="#29992C"/>
<path d="M126.389 29.5142C126.389 29.5142 94.2427 48.8699 88.7869 52.9081C83.3312 56.9462 82.2175 62.1718 82.2175 62.1718C82.2175 62.1718 86.8099 63.1808 93.0211 58.5935C97.7375 55.0976 126.389 29.5142 126.389 29.5142Z" fill="#6DE26D"/>
<path d="M80.0775 63.7436L86.1807 58.4402L86.9408 59.4606L80.0775 63.7436Z" fill="#F69151"/>
<path d="M85.5378 55.6398L89.4712 60.9203C90.0284 60.6229 90.6047 60.2774 91.2002 59.8839L87.0096 54.2556C86.4949 54.6908 86.0036 55.1529 85.5378 55.6398Z" fill="#29992C"/>
<path d="M90.6193 51.6107C89.9304 52.0683 89.3793 52.4572 88.9729 52.7547L93.2071 58.4401C93.5859 58.161 94.1255 57.7378 94.7822 57.1955L90.6193 51.6107Z" fill="#29992C"/>
<path d="M133.93 8.89078V11.0048H134.389V8.89078C134.389 8.8301 134.365 8.77191 134.322 8.729C134.279 8.68609 134.221 8.66199 134.16 8.66199C134.099 8.66199 134.04 8.68609 133.997 8.729C133.954 8.77191 133.93 8.8301 133.93 8.89078Z" fill="white"/>
<path d="M133.93 18.1316C133.93 18.1923 133.954 18.2505 133.997 18.2934C134.04 18.3363 134.099 18.3604 134.16 18.3604C134.221 18.3604 134.279 18.3363 134.322 18.2934C134.365 18.2505 134.389 18.1923 134.389 18.1316V16.1434H133.93V18.1316Z" fill="white"/>
<path d="M129.246 13.5101C129.252 13.5767 129.285 13.6381 129.336 13.6809C129.388 13.7238 129.454 13.7446 129.521 13.7389H131.643V13.2813H129.521C129.455 13.2761 129.388 13.2972 129.337 13.3399C129.286 13.3826 129.253 13.4437 129.246 13.5101Z" fill="white"/>
<path d="M138.796 13.2812H136.8V13.7388H138.796C138.857 13.7388 138.915 13.7147 138.958 13.6718C139.001 13.6289 139.025 13.5707 139.025 13.51C139.025 13.4494 139.001 13.3912 138.958 13.3483C138.915 13.3054 138.857 13.2812 138.796 13.2812Z" fill="white"/>
<path d="M130.717 10.4053L132.216 11.8971L132.542 11.5745L131.041 10.0805C131.02 10.0565 130.995 10.0371 130.966 10.0233C130.938 10.0096 130.907 10.0019 130.875 10.0007C130.844 9.99944 130.812 10.0048 130.783 10.0163C130.753 10.0278 130.726 10.0452 130.704 10.0675C130.682 10.0898 130.664 10.1165 130.652 10.1458C130.641 10.1752 130.636 10.2066 130.637 10.2381C130.638 10.2696 130.646 10.3005 130.66 10.3289C130.673 10.3573 130.693 10.3825 130.717 10.4031V10.4053Z" fill="white"/>
<path d="M137.276 16.9305C137.296 16.9544 137.322 16.9739 137.35 16.9876C137.379 17.0014 137.41 17.0091 137.441 17.0103C137.473 17.0115 137.504 17.0062 137.534 16.9947C137.563 16.9832 137.59 16.9658 137.612 16.9435C137.635 16.9212 137.652 16.8945 137.664 16.8651C137.675 16.8358 137.681 16.8044 137.68 16.7728C137.678 16.7413 137.671 16.7104 137.657 16.682C137.643 16.6537 137.623 16.6284 137.599 16.6079L136.19 15.2031L135.866 15.5349L137.276 16.9305Z" fill="white"/>
<path d="M130.683 16.9716C130.735 17.014 130.802 17.0344 130.869 17.0284C130.936 17.0224 130.998 16.9905 131.041 16.9396L132.543 15.4433L132.217 15.1207L130.718 16.617C130.666 16.6598 130.634 16.721 130.628 16.7873C130.621 16.8537 130.641 16.9199 130.683 16.9716Z" fill="white"/>
<path d="M137.276 10.0828L135.866 11.4876L136.19 11.8102L137.599 10.4054C137.623 10.3849 137.643 10.3596 137.657 10.3312C137.671 10.3029 137.678 10.2719 137.68 10.2404C137.681 10.2089 137.675 10.1775 137.664 10.1481C137.652 10.1188 137.635 10.0921 137.612 10.0698C137.59 10.0475 137.563 10.0301 137.534 10.0186C137.504 10.0071 137.473 10.0018 137.441 10.003C137.41 10.0042 137.379 10.0119 137.35 10.0256C137.322 10.0394 137.296 10.0588 137.276 10.0828Z" fill="white"/>
<defs>
<linearGradient id="paint0_linear" x1="29.3224" y1="122.543" x2="29.3224" y2="96.6758" gradientUnits="userSpaceOnUse">
<stop stop-color="#052E4B"/>
<stop offset="1" stop-color="#002738"/>
</linearGradient>
<linearGradient id="paint1_linear" x1="460.869" y1="966.004" x2="460.869" y2="956.218" gradientUnits="userSpaceOnUse">
<stop stop-color="#052E4B"/>
<stop offset="1" stop-color="#002738"/>
</linearGradient>
<linearGradient id="paint2_linear" x1="627.882" y1="968.861" x2="627.882" y2="959.03" gradientUnits="userSpaceOnUse">
<stop stop-color="#052E4B"/>
<stop offset="1" stop-color="#002738"/>
</linearGradient>
<linearGradient id="paint3_linear" x1="59.8824" y1="135.433" x2="59.8824" y2="108.097" gradientUnits="userSpaceOnUse">
<stop stop-color="#072F4D"/>
<stop offset="1" stop-color="#002839"/>
</linearGradient>
<linearGradient id="paint4_linear" x1="11364.5" y1="14319.7" x2="11364.5" y2="10751.4" gradientUnits="userSpaceOnUse">
<stop stop-color="#072F4D"/>
<stop offset="1" stop-color="#002839"/>
</linearGradient>
<linearGradient id="paint5_linear" x1="1854.42" y1="113.136" x2="1850.89" y2="113.134" gradientUnits="userSpaceOnUse">
<stop stop-color="#072F4D"/>
<stop offset="1" stop-color="#002839"/>
</linearGradient>
<linearGradient id="paint6_linear" x1="1951.44" y1="107.75" x2="1946.99" y2="107.755" gradientUnits="userSpaceOnUse">
<stop stop-color="#072F4D"/>
<stop offset="1" stop-color="#002839"/>
</linearGradient>
</defs>
</svg>
