<svg width="161" height="125" viewBox="0 0 161 125" fill="none" xmlns="http://www.w3.org/2000/svg">
<g clip-path="url(#clip0)">
<path d="M156.442 125H4.41136C2.94091 125 0 123.386 0 121.419V120.099C0 118.132 5.26423 119.291 6.66116 119.291L156.28 117.677C157.75 117.677 161 118.132 161 120.099V121.419C161 123.386 157.839 125 156.442 125Z" fill="#E7E2E5"/>
<path d="M143.869 81.6653H18.5424C18.2909 81.6451 18.0384 81.6899 17.8092 81.7952C17.58 81.9006 17.3818 82.0631 17.2337 82.267L0.0882474 119.468C-0.205843 120.113 0.205884 120.466 1.27932 120.466H159.838C161.103 120.466 161.103 119.776 160.897 119.159L145.751 82.9421C145.632 82.5463 145.379 82.2036 145.037 81.9712C144.694 81.7389 144.282 81.6309 143.869 81.6653Z" fill="#F2F1F2"/>
<path d="M23.4391 83.6904H133.723L144.766 117.002H9.36684L23.4391 83.6904Z" fill="#C3DBF2"/>
<path d="M34.8498 122.168H16.0427C15.6448 122.168 15.3222 122.49 15.3222 122.887C15.3222 123.284 15.6448 123.606 16.0427 123.606H34.8498C35.2477 123.606 35.5703 123.284 35.5703 122.887C35.5703 122.49 35.2477 122.168 34.8498 122.168Z" fill="#7A99A2"/>
<path d="M34.4674 122.388H15.8074C15.4094 122.388 15.0869 122.71 15.0869 123.107C15.0869 123.504 15.4094 123.826 15.8074 123.826H34.4674C34.8654 123.826 35.188 123.504 35.188 123.107C35.188 122.71 34.8654 122.388 34.4674 122.388Z" fill="#90B1C2"/>
<path d="M149.045 101.711H143.957C143.923 101.707 143.889 101.697 143.858 101.68C143.827 101.663 143.8 101.641 143.778 101.613C143.757 101.586 143.74 101.555 143.731 101.521C143.721 101.487 143.718 101.452 143.722 101.417L142.061 97.3673C142.061 97.1912 142.164 97.0591 142.296 97.0591H147.398C147.47 97.07 147.534 97.1082 147.578 97.1657C147.622 97.2232 147.642 97.2955 147.634 97.3673L149.295 101.417C149.299 101.489 149.276 101.56 149.229 101.614C149.183 101.669 149.117 101.704 149.045 101.711Z" fill="#C3DBF2"/>
<path d="M12.9694 101.095L14.0282 101.374C14.0282 101.374 14.1017 101.256 14.1164 101.08L16.5279 95.5036C16.5534 95.4025 16.5534 95.2966 16.5279 95.1955L15.4545 94.9166C15.4545 94.9166 15.4545 95.0487 15.3663 95.2101L12.9547 100.787C12.9253 100.948 12.94 101.08 12.9694 101.095Z" fill="#7A9DA6"/>
<path d="M135.149 0L117.401 10.2283L122.974 13.8677L105.549 39.754L93.2561 39.9008L82.0954 56.498H73.552L64.0676 70.6885H54.2303L53.8038 72.3028L44.3047 87.77L47.9514 91.0278L57.877 76.5291H66.9056V76.0448L67.3173 76.3237L77.0811 61.825H84.8451V59.0661L86.6097 60.2401L96.4176 45.6827H106.534L108.549 42.7624L110.402 43.0119L127.871 17.0668L134.576 21.1464L136.635 0.689716L135.149 0Z" fill="#209346"/>
<path d="M36.2172 106.568L31.6294 104.206L53.7156 70.6885H57.5388L36.2172 106.568Z" fill="#D7E1E6"/>
<path d="M136.635 0.689697L118.886 10.918L124.356 14.484L106.02 41.7498L93.9472 41.6324L93.8737 41.7498H93.8443V41.7792L82.8012 58.2003H74.0373H73.9343L73.8902 58.2443L64.4352 72.3028H53.9068V72.3761L53.8038 72.3028L32.4381 104.044L37.2906 107.302L56.9212 78.1433H66.8026L67.5673 78.114L77.0517 64.0262H85.8891L85.9921 63.9088L96.9911 47.5757H109.093V47.5317L109.137 47.561L129.253 17.6831L134.576 21.1464L136.635 0.689697Z" fill="#52B958"/>
<path d="M131.473 42.7623H118.033V105.072H131.473V42.7623Z" fill="#52B958"/>
<path d="M111.593 54.3849H98.3146V105.072H111.593V54.3849Z" fill="white"/>
<path d="M91.521 70.2043H78.2428V105.072H91.521V70.2043Z" fill="white"/>
<path d="M71.6993 82.0763H58.4211V105.072H71.6993V82.0763Z" fill="white"/>
<path d="M129.753 41.1041H116.298L118.033 42.7624H131.473L129.753 41.1041Z" fill="#067D3F"/>
<path d="M118.033 105.072L116.298 103.355V41.1041L118.033 42.7624V105.072Z" fill="#1F9346"/>
<path d="M110.74 52.4478H97.4617L98.3146 54.3848H111.593L110.74 52.4478Z" fill="#D5E3E6"/>
<path d="M98.4911 105.072L97.4617 102.239V52.4478L98.4911 54.3848V105.072Z" fill="#D7E1E6"/>
<path d="M92.3886 68.1497H79.1104L78.2428 70.2041H91.521L92.3886 68.1497Z" fill="#D5E3E6"/>
<path d="M92.3886 102.357L91.521 105.071V70.2041L92.3886 68.1497V102.357Z" fill="#D7E1E6"/>
<path d="M73.5962 80.2565H60.318L58.4211 82.0762H71.6993L73.5962 80.2565Z" fill="#D5E3E6"/>
<path d="M73.5961 102.239L71.6993 105.072V82.0761L73.5961 80.2565V102.239Z" fill="#D7E1E6"/>
<path d="M53.7892 100.743V103.986C50.0681 102.548 46.1528 101.672 42.1726 101.388V107.405H19.7923C19.1786 106.825 18.4532 106.376 17.6602 106.084V115.931C21.6598 118.866 29.115 120.818 37.6583 120.818C50.069 120.818 60.1857 116.665 60.7739 111.455V100.743H53.7892Z" fill="#314781"/>
<path d="M38.3053 94.7699H20.4246V106.363H38.3053V94.7699Z" fill="#00545D"/>
<path d="M17.4249 102.504L17.6602 102.401C17.6602 102.401 14.7193 115.417 13.6311 114.713C12.7661 114.248 12.0251 113.583 11.47 112.774C10.9149 111.964 10.5618 111.034 10.4402 110.061V100.229L17.4543 99.2898L17.4249 102.504Z" fill="#209346"/>
<path d="M15.0134 94.3737C12.1607 95.9585 10.4108 98.1451 10.4108 100.537C10.4846 101.611 10.8157 102.651 11.376 103.57C11.9364 104.489 12.7098 105.261 13.6311 105.82L33.4529 101.256L15.0134 94.3737Z" fill="#52B958"/>
<path d="M27.0563 119.746C30.584 120.501 34.1828 120.875 37.7906 120.862C42.1815 120.896 46.5561 120.323 50.7894 119.159V102.9C48.1954 102.16 45.5365 101.668 42.849 101.432H42.3049V107.39H27.0563V119.746Z" fill="#D7E1E6"/>
<path d="M37.6583 91.4974C31.7461 91.3555 25.8714 92.471 20.4246 94.7699L38.07 101.447L17.6454 106.084C21.6451 109.019 29.1003 111.147 37.6436 111.147C50.4218 111.147 60.7885 106.745 60.7885 101.33C60.7885 95.9145 50.4366 91.4974 37.6583 91.4974Z" fill="#1E2D5C"/>
<path d="M17.6602 106.084L33.4528 102.577V101.227L13.6311 105.82V114.713L17.6602 113.832V106.084Z" fill="#067E40"/>
<path d="M31.9089 107.464H19.7923C19.1815 106.88 18.4553 106.43 17.6602 106.143V116.034C20.7334 118.279 25.8506 119.952 31.9089 120.612V107.464Z" fill="#D7E1E6"/>
<path d="M38.0701 101.447L17.6454 106.07C20.7334 108.315 25.8506 110.09 31.9383 110.795L38.0701 101.447Z" fill="white"/>
<path d="M37.7906 111.191C42.1306 111.231 46.4553 110.673 50.6424 109.533L38.07 101.447L31.9088 110.839C33.8602 111.078 35.8246 111.195 37.7906 111.191Z" fill="white"/>
<path d="M109.593 94.902V99.7007V99.8474V110.149H112.946V99.8474V99.7007V94.902H109.593Z" fill="#52B958"/>
<path d="M112.946 103.56H109.593V110.149H112.946V103.56Z" fill="#52B958"/>
<path d="M104.932 101.917V102.562V106.862V107.361V110.149H108.284V107.361V106.862V102.562V101.917V82.5898H104.932V101.917Z" fill="#52B958"/>
<path d="M100.064 93.0382V95.3275V96.7656V98.4825V110.149H103.417V98.4825V96.7656V95.3275V93.0382V90.3967H100.064V93.0382Z" fill="#52B958"/>
<path d="M95.1384 102.107V102.21V110.149H98.491V102.21V102.107V98.4093H95.1384V102.107Z" fill="#52B958"/>
<path d="M98.491 105.072H95.1384V110.149H98.491V105.072Z" fill="#52B958"/>
<path d="M90.477 103.81V104.309V107.61V107.992V110.149H93.8296V107.992V107.61V104.309V103.81V88.9293H90.477V103.81Z" fill="#52B958"/>
<path d="M80.7279 96.9712V98.7468V99.8474V101.168V110.149H84.0805V101.168V99.8474V98.7468V96.9712V94.946H80.7279V96.9712Z" fill="#52B958"/>
<path d="M85.5804 96.9711V98.7467V99.8473V101.168V110.149H88.933V101.168V99.8473V98.7467V96.9711V94.9313H85.5804V96.9711Z" fill="#52B958"/>
<path d="M82.4042 91.8497C82.7371 91.8497 83.0071 91.5803 83.0071 91.248C83.0071 90.9157 82.7371 90.6464 82.4042 90.6464C82.0712 90.6464 81.8013 90.9157 81.8013 91.248C81.8013 91.5803 82.0712 91.8497 82.4042 91.8497Z" fill="#52B958"/>
<path d="M92.1533 85.7889C92.4862 85.7889 92.7562 85.5195 92.7562 85.1872C92.7562 84.855 92.4862 84.5856 92.1533 84.5856C91.8203 84.5856 91.5504 84.855 91.5504 85.1872C91.5504 85.5195 91.8203 85.7889 92.1533 85.7889Z" fill="#52B958"/>
<path d="M96.8147 94.6085C97.1477 94.6085 97.4176 94.3391 97.4176 94.0068C97.4176 93.6745 97.1477 93.4052 96.8147 93.4052C96.4818 93.4052 96.2118 93.6745 96.2118 94.0068C96.2118 94.3391 96.4818 94.6085 96.8147 94.6085Z" fill="#52B958"/>
<path d="M101.741 86.9482C102.074 86.9482 102.344 86.6788 102.344 86.3465C102.344 86.0143 102.074 85.7449 101.741 85.7449C101.408 85.7449 101.138 86.0143 101.138 86.3465C101.138 86.6788 101.408 86.9482 101.741 86.9482Z" fill="#52B958"/>
<path d="M106.608 78.0406C106.941 78.0406 107.211 77.7712 107.211 77.4389C107.211 77.1067 106.941 76.8373 106.608 76.8373C106.275 76.8373 106.005 77.1067 106.005 77.4389C106.005 77.7712 106.275 78.0406 106.608 78.0406Z" fill="#52B958"/>
<path d="M92.1081 85.1222L82.3636 91.1871L82.4569 91.3366L92.2014 85.2716L92.1081 85.1222Z" fill="#52B958"/>
<path d="M92.2386 85.1471L92.083 85.2303L96.7456 93.9084L96.9011 93.8252L92.2386 85.1471Z" fill="#52B958"/>
<path d="M101.676 86.295L96.7465 93.9489L96.895 94.0441L101.824 86.3902L101.676 86.295Z" fill="#52B958"/>
<path d="M106.535 77.4022L101.684 86.312L101.839 86.3961L106.69 77.4863L106.535 77.4022Z" fill="#52B958"/>
</g>
<defs>
<clipPath id="clip0">
<rect width="161" height="125" fill="white"/>
</clipPath>
</defs>
</svg>
