<svg width="85" height="33" viewBox="0 0 85 33" fill="none" xmlns="http://www.w3.org/2000/svg">
<g clip-path="url(#clip0)">
<path d="M42.2353 22.2117C39.1984 24.5598 37.8479 27.7576 37.8479 27.7576C37.8479 27.7576 43.6753 29.4071 48.5758 27.3279C51.0184 26.2916 52.7689 24.5243 53.9114 23.0123C49.8919 23.3604 45.8831 22.9541 42.2353 22.2117Z" fill="url(#paint0_linear)"/>
<path d="M27.9398 18.5494C27.8121 18.4967 27.6764 18.4658 27.5383 18.458C27.3628 18.4175 27.1832 18.3969 27.003 18.3968H2.30161C1.68739 18.4077 1.10208 18.6564 0.671626 19.0893C0.241176 19.5221 0 20.1046 0 20.7113C0 21.318 0.241176 21.9005 0.671626 22.3334C1.10208 22.7662 1.68739 23.0149 2.30161 23.0258H20.6227C18.4814 25.3513 17.5576 27.488 17.5576 27.488C17.5576 27.488 25.4574 29.7236 32.1 26.9049C35.1674 25.6036 37.4326 23.4518 38.9766 21.513C34.4164 20.4171 30.3434 19.5372 27.9398 18.5494Z" fill="url(#paint1_linear)"/>
<path d="M83.7265 3.40994C78.2203 -2.49023 68.8139 3.84498 68.4316 4.10857C68.4086 4.11763 68.3864 4.12519 68.3635 4.135C67.7815 4.38047 64.8166 13.5192 51.871 18.2019C49.7855 18.9572 47.5639 19.1015 45.4295 19.1498H45.4226C46.9146 19.0664 48.3953 18.8428 49.8444 18.4821C50.2134 18.4296 50.5736 18.328 50.915 18.18C61.8188 14.81 67.3104 3.4394 67.3104 3.4394L59.5643 1.24458C55.5045 0.0946305 51.2568 -0.263236 47.0584 0.190978L42.3988 0.694744H18.1303C16.8601 0.694744 15.7772 1.67055 15.732 2.9243C15.7205 3.23518 15.7726 3.54516 15.8851 3.83571C15.9977 4.12627 16.1684 4.39143 16.3871 4.61535C16.6057 4.83926 16.8678 5.01734 17.1578 5.13894C17.4477 5.26054 17.7595 5.32315 18.0745 5.32305H34.2451C32.6978 6.5876 31.2728 7.99138 29.9885 9.51631H10.2136C8.94262 9.51631 7.8605 10.4921 7.81538 11.7466C7.80398 12.0574 7.8561 12.3673 7.96863 12.6577C8.08116 12.9482 8.2518 13.2133 8.47036 13.4372C8.68892 13.6611 8.95092 13.8392 9.24071 13.9608C9.5305 14.0825 9.84214 14.1453 10.157 14.1454H27.2392C27.9022 14.7926 29.7468 16.4165 32.3057 17.242C38.3778 19.6377 48.7936 22.6678 58.4715 20.2759C56.0167 25.8929 58.0715 32.0355 58.0715 32.0355C58.0715 32.0355 66.2635 29.6367 69.8219 23.6905C72.0863 19.9051 71.928 15.597 71.5135 12.9656C73.8207 12.1786 76.2404 11.1092 78.7786 9.71797C86.8306 5.29586 85.3378 5.13574 83.7265 3.40994ZM49.2999 2.7944C49.5791 2.48891 49.9436 2.27186 50.3475 2.17057C50.7514 2.06928 51.1766 2.08828 51.5696 2.22518C51.9626 2.36208 52.3057 2.61076 52.5559 2.9399C52.806 3.26904 52.952 3.66392 52.9753 4.07482C52.9987 4.48571 52.8984 4.89425 52.6872 5.24898C52.4759 5.6037 52.1631 5.88876 51.7881 6.06825C51.4131 6.24774 50.9927 6.31363 50.5799 6.25763C50.167 6.20163 49.7802 6.02624 49.4681 5.75355C49.0496 5.38251 48.7969 4.86285 48.7654 4.30828C48.7339 3.75371 48.926 3.20938 49.2999 2.7944ZM40.7209 15.4074C40.3542 15.0845 40.1322 14.6311 40.1035 14.1468C40.0749 13.6624 40.2419 13.1866 40.568 12.8236L45.9212 6.90458C46.2489 6.54233 46.7088 6.32346 47.1999 6.29612C47.691 6.26878 48.1729 6.43522 48.5397 6.75882C48.9062 7.08263 49.1276 7.53691 49.1551 8.02183C49.1826 8.50674 49.0141 8.98261 48.6865 9.34487L43.3333 15.2647C43.0053 15.6245 42.5464 15.8415 42.0569 15.8683C41.5674 15.895 41.0871 15.7293 40.7209 15.4074ZM77.7638 4.15389C77.7309 4.53907 77.4701 4.95447 77.1688 5.19012C76.801 5.47712 76.4194 5.51715 75.9704 5.51715C75.0749 5.51715 74.5243 4.50735 74.5939 3.74604C74.6268 3.36085 74.8868 2.94545 75.1889 2.70981C75.5567 2.4228 75.9376 2.38278 76.3872 2.38278C77.2759 2.38353 77.8288 3.39257 77.7638 4.15389Z" fill="url(#paint2_linear)"/>
</g>
<defs>
<linearGradient id="paint0_linear" x1="17.9132" y1="-6.33831" x2="47.9501" y2="28.5946" gradientUnits="userSpaceOnUse">
<stop stop-color="#00DA5D"/>
<stop offset="1" stop-color="#008049"/>
</linearGradient>
<linearGradient id="paint1_linear" x1="2474.62" y1="665.977" x2="4164.2" y2="8281.35" gradientUnits="userSpaceOnUse">
<stop stop-color="#00DA5D"/>
<stop offset="1" stop-color="#008049"/>
</linearGradient>
<linearGradient id="paint2_linear" x1="26874" y1="-5839.75" x2="35108.8" y2="16949.3" gradientUnits="userSpaceOnUse">
<stop stop-color="#00DA5D"/>
<stop offset="1" stop-color="#008049"/>
</linearGradient>
<clipPath id="clip0">
<rect width="85" height="32.0355" fill="white"/>
</clipPath>
</defs>
</svg>
