<svg width="19" height="14" viewBox="0 0 19 14" fill="none" xmlns="http://www.w3.org/2000/svg">
<path d="M6.63182 13.8857L0.118526 7.51453C0.0809625 7.4778 0.0511535 7.43413 0.0308125 7.38602C0.0104715 7.33792 0 7.28634 0 7.23425C0 7.18215 0.0104715 7.13057 0.0308125 7.08247C0.0511535 7.03437 0.0809625 6.99069 0.118526 6.95396L1.76284 5.33512C1.91996 5.1806 2.17391 5.1806 2.33104 5.33512L6.61903 9.52685C6.77615 9.68137 7.03193 9.67957 7.18906 9.52506L16.6639 0.117461C16.8211 -0.0388529 17.0768 -0.038853 17.2358 0.115664L18.8819 1.7345C19.0391 1.88902 19.0391 2.13876 18.8838 2.29328L8.56114 12.5364L8.56297 12.5381L7.20185 13.8839C7.04472 14.0384 6.78894 14.0384 6.63182 13.8857Z" fill="#01DB5E"/>
</svg>
